<svg version="1.1" xmlns="http://www.w3.org/2000/svg" viewBox="0 0 1694.453125 892.9266357421875" width="1694.453125" height="892.9266357421875">
  <!-- svg-source:excalidraw -->
  
  <defs>
    <style class="style-fonts">
      @font-face {
        font-family: "Virgil";
        src: url("https://file%2B.vscode-resource.vscode-cdn.net/Users/anhquando/.vscode/extensions/pomdtr.excalidraw-editor-3.7.4/public//dist/excalidraw-assets/Virgil.woff2");
      }
      @font-face {
        font-family: "Cascadia";
        src: url("https://file%2B.vscode-resource.vscode-cdn.net/Users/anhquando/.vscode/extensions/pomdtr.excalidraw-editor-3.7.4/public//dist/excalidraw-assets/Cascadia.woff2");
      }
      @font-face {
        font-family: "Assistant";
        src: url("https://file%2B.vscode-resource.vscode-cdn.net/Users/anhquando/.vscode/extensions/pomdtr.excalidraw-editor-3.7.4/public//dist/excalidraw-assets/Assistant-Regular.woff2");
      }
    </style>
    
  </defs>
  <rect x="0" y="0" width="1694.453125" height="892.9266357421875" fill="#ffffff"></rect><g stroke-linecap="round" transform="translate(749.1953125 238.630859375) rotate(0 143.6796875 22)"><path d="M0 0 C95.13 -0.72, 189.52 -0.99, 287.36 0 M0 0 C66.89 1.15, 133.49 1.43, 287.36 0 M287.36 0 C287.04 12.29, 285.46 21.16, 287.36 44 M287.36 0 C288.38 8.45, 286.93 18.08, 287.36 44 M287.36 44 C184.42 44.89, 79.39 44.13, 0 44 M287.36 44 C225.21 43.93, 162.9 43.53, 0 44 M0 44 C-1.84 32.01, -0.57 21.22, 0 0 M0 44 C0.4 30.89, -1.17 15.58, 0 0" stroke="#1e1e1e" stroke-width="2" fill="none"></path></g><g stroke-linecap="round" transform="translate(129.8515625 343.537109375) rotate(0 107.015625 22)"><path d="M0 0 C76.26 -0.34, 148.65 -1.47, 214.03 0 M0 0 C47.78 0.93, 96.09 1, 214.03 0 M214.03 0 C212.14 9.49, 212.03 19.86, 214.03 44 M214.03 0 C213.74 12.75, 215.01 24.57, 214.03 44 M214.03 44 C141.37 43.16, 66.9 43.86, 0 44 M214.03 44 C148.94 42.76, 82.54 43.41, 0 44 M0 44 C-0.19 28.46, 0.72 11.49, 0 0 M0 44 C-1.15 28.84, 0.41 15.1, 0 0" stroke="#1e1e1e" stroke-width="2" fill="none"></path></g><g stroke-linecap="round" transform="translate(854.390625 384.927734375) rotate(0 105.8046875 22)"><path d="M0 0 C67.42 -1.14, 135.89 -0.3, 211.61 0 M0 0 C50.12 0.31, 100.55 0.33, 211.61 0 M211.61 0 C209.26 18.02, 210.89 35.67, 211.61 44 M211.61 0 C211.95 10.69, 211.73 23.03, 211.61 44 M211.61 44 C146.4 42.92, 84.21 43.81, 0 44 M211.61 44 C153.85 42.42, 97.28 41.66, 0 44 M0 44 C0.44 32.03, 0.73 18.46, 0 0 M0 44 C1.1 27.48, -0.17 10.57, 0 0" stroke="#1e1e1e" stroke-width="2" fill="none"></path></g><g stroke-linecap="round" transform="translate(1418.19921875 333.123046875) rotate(0 116.859375 22)"><path d="M0 0 C70.31 0.96, 142.1 0.12, 233.72 0 M0 0 C63.85 0.19, 129.88 -0.47, 233.72 0 M233.72 0 C232.98 14.93, 232.36 25.35, 233.72 44 M233.72 0 C234.4 15.01, 234.01 28.63, 233.72 44 M233.72 44 C175.22 44.52, 116.02 44.87, 0 44 M233.72 44 C183.31 43.06, 131.5 43.6, 0 44 M0 44 C0.53 29, 1.49 9.38, 0 0 M0 44 C-0.85 33.5, -1.32 22.53, 0 0" stroke="#1e1e1e" stroke-width="2" fill="none"></path></g><g stroke-linecap="round" transform="translate(10 427.123046875) rotate(0 49.0234375 22)"><path d="M0 0 C22.51 -1.1, 46.98 -1.1, 98.05 0 M0 0 C28.79 -0.79, 55.87 -0.85, 98.05 0 M98.05 0 C97.04 14.09, 98.46 32.01, 98.05 44 M98.05 0 C98.24 11.32, 97.73 21.61, 98.05 44 M98.05 44 C68.98 45.65, 39.4 43.92, 0 44 M98.05 44 C69.43 42.78, 41.42 43.24, 0 44 M0 44 C1.43 25.75, -1.43 12.28, 0 0 M0 44 C-0.77 29.49, -0.01 15.69, 0 0" stroke="#1e1e1e" stroke-width="2" fill="none"></path></g><g stroke-linecap="round" transform="translate(158.046875 427.123046875) rotate(0 44.2578125 22)"><path d="M0 0 C25.13 -0.67, 50.91 -1.18, 88.52 0 M0 0 C25.45 -0.16, 51.33 0.66, 88.52 0 M88.52 0 C88.79 17.99, 87.41 34.29, 88.52 44 M88.52 0 C88.03 15.64, 88.43 33.01, 88.52 44 M88.52 44 C56.68 44.07, 27.94 46.29, 0 44 M88.52 44 C70.99 43.89, 52.74 44.03, 0 44 M0 44 C-1.65 29.01, -0.11 10.03, 0 0 M0 44 C0.2 30.62, -0.36 18.97, 0 0" stroke="#1e1e1e" stroke-width="2" fill="none"></path></g><g stroke-linecap="round" transform="translate(296.5625 427.123046875) rotate(0 118.8125 22)"><path d="M0 0 C56.67 -0.24, 113.64 2.66, 237.63 0 M0 0 C49.88 1.8, 99.6 1.54, 237.63 0 M237.63 0 C236.83 11.16, 239.22 20.72, 237.63 44 M237.63 0 C237.32 13.71, 237.82 27.01, 237.63 44 M237.63 44 C151.39 44.97, 63.84 43.64, 0 44 M237.63 44 C174.19 44.56, 110.08 44.96, 0 44 M0 44 C0.52 33.39, -0.04 22.9, 0 0 M0 44 C-0.69 34.25, -0.87 24.5, 0 0" stroke="#1e1e1e" stroke-width="2" fill="none"></path></g><g stroke-linecap="round" transform="translate(771.2275390625 573) rotate(0 55.9765625 17.5)"><path d="M0 0 C26.59 2.7, 51.85 1.02, 111.95 0 M0 0 C23.5 -0.29, 44.74 0.42, 111.95 0 M111.95 0 C113.28 12.7, 112 24.36, 111.95 35 M111.95 0 C112.33 7.33, 112.54 14.4, 111.95 35 M111.95 35 C79.21 36.12, 49.6 37.46, 0 35 M111.95 35 C77.36 36.11, 40.47 34.68, 0 35 M0 35 C-0.37 19.93, -1.64 8.37, 0 0 M0 35 C-0.7 27.49, -0.34 20.36, 0 0" stroke="#1e1e1e" stroke-width="2" fill="none"></path></g><g stroke-linecap="round" transform="translate(1468 453.267578125) rotate(0 108.2265625 22)"><path d="M0 0 C82.79 2.31, 163.95 1.93, 216.45 0 M0 0 C80.59 -0.91, 161.96 -0.13, 216.45 0 M216.45 0 C214.71 14.53, 216.18 31.78, 216.45 44 M216.45 0 C217.23 9.24, 217.26 18.47, 216.45 44 M216.45 44 C134.36 43.72, 54.74 41.51, 0 44 M216.45 44 C154.87 41.7, 93 42.42, 0 44 M0 44 C0.18 35.36, -1.69 28.21, 0 0 M0 44 C-0.5 30.75, 0.46 15.16, 0 0" stroke="#1e1e1e" stroke-width="2" fill="none"></path></g><g stroke-linecap="round" transform="translate(243.265625 521.123046875) rotate(0 74.7109375 22)"><path d="M0 0 C34.24 -0.12, 71.77 -0.9, 149.42 0 M0 0 C46.24 1.3, 93.08 0.95, 149.42 0 M149.42 0 C148.92 17.68, 147.19 32.03, 149.42 44 M149.42 0 C150.52 12.16, 150.49 24.51, 149.42 44 M149.42 44 C117.21 44.04, 84.21 43.1, 0 44 M149.42 44 C115.78 42.58, 82.75 42.5, 0 44 M0 44 C-1.78 35.5, 0.38 24.71, 0 0 M0 44 C0.88 32.95, -0.71 22.52, 0 0" stroke="#1e1e1e" stroke-width="2" fill="none"></path></g><g stroke-linecap="round" transform="translate(442.6875 521.123046875) rotate(0 70.0859375 22)"><path d="M0 0 C52.25 -0.54, 101.72 -1.55, 140.17 0 M0 0 C30.88 -0.37, 61.56 -0.91, 140.17 0 M140.17 0 C138.27 12.28, 139.53 25.76, 140.17 44 M140.17 0 C141.25 14.66, 139.68 27.12, 140.17 44 M140.17 44 C87.49 41.26, 33.86 42.77, 0 44 M140.17 44 C109.77 43.74, 80.71 43.95, 0 44 M0 44 C0.79 31.92, -0.89 16.2, 0 0 M0 44 C-1.13 26.4, 0.25 9.4, 0 0" stroke="#1e1e1e" stroke-width="2" fill="none"></path></g><g stroke-linecap="round"><g transform="translate(748.1953125 270.5807537505206) rotate(0 -272.94515624999997 33.82817781223969)"><path d="M0.02 0.12 C-91.15 6.06, -458.5 25.28, -546.48 36.55 C-634.46 47.82, -531.08 62.61, -527.87 67.74 M-1.44 -0.86 C-92.24 5.12, -456.2 25.91, -544.08 37.57 C-631.96 49.23, -531.58 63.98, -528.7 69.1" stroke="#1e1e1e" stroke-width="2" fill="none"></path></g><g transform="translate(748.1953125 270.5807537505206) rotate(0 -272.94515624999997 33.82817781223969)"><path d="M-546.26 69.73 C-540.11 68.65, -535.76 69.13, -528.7 69.1 M-546.26 69.73 C-540.33 68.87, -535.7 69.33, -528.7 69.1" stroke="#1e1e1e" stroke-width="2" fill="none"></path></g><g transform="translate(748.1953125 270.5807537505206) rotate(0 -272.94515624999997 33.82817781223969)"><path d="M-542.56 58.29 C-537.58 61.1, -534.49 65.48, -528.7 69.1 M-542.56 58.29 C-537.71 60.93, -534.22 64.89, -528.7 69.1" stroke="#1e1e1e" stroke-width="2" fill="none"></path></g></g><mask></mask><g stroke-linecap="round"><g transform="translate(902.9625584819518 283.630859375) rotate(0 21.05258499728899 47.998437499999994)"><path d="M-0.59 -0.99 C6.41 15, 34.8 79.97, 41.99 96.08 M1.3 1.1 C8.13 17.3, 34.19 81.71, 40.99 97.66" stroke="#1e1e1e" stroke-width="2" fill="none"></path></g><g transform="translate(902.9625584819518 283.630859375) rotate(0 21.05258499728899 47.998437499999994)"><path d="M20.72 75.54 C25.2 82.12, 33.09 89.79, 40.99 97.66 M20.72 75.54 C26.13 81.64, 32.75 86.8, 40.99 97.66" stroke="#1e1e1e" stroke-width="2" fill="none"></path></g><g transform="translate(902.9625584819518 283.630859375) rotate(0 21.05258499728899 47.998437499999994)"><path d="M39.68 67.68 C38.45 76.54, 40.63 86.58, 40.99 97.66 M39.68 67.68 C39.98 75.77, 41.45 83.06, 40.99 97.66" stroke="#1e1e1e" stroke-width="2" fill="none"></path></g></g><mask></mask><g stroke-linecap="round"><g transform="translate(1037.5546875 271.3674494705136) rotate(0 249.03990432707383 28.227798702243206)"><path d="M-0.11 0.08 C55.19 2.55, 248.07 4.61, 331.23 13.84 C414.39 23.07, 471.07 48.39, 498.83 55.48 M-1.63 -0.92 C53.61 1.81, 247.2 5.66, 330.54 15.2 C413.89 24.73, 470.57 49.25, 498.46 56.29" stroke="#1e1e1e" stroke-width="2" fill="none"></path></g><g transform="translate(1037.5546875 271.3674494705136) rotate(0 249.03990432707383 28.227798702243206)"><path d="M468.49 57.74 C476.15 58.23, 482.97 58.29, 498.46 56.29 M468.49 57.74 C475.92 56.51, 481.68 56.82, 498.46 56.29" stroke="#1e1e1e" stroke-width="2" fill="none"></path></g><g transform="translate(1037.5546875 271.3674494705136) rotate(0 249.03990432707383 28.227798702243206)"><path d="M474.57 38.14 C480.54 43.54, 485.84 48.51, 498.46 56.29 M474.57 38.14 C480.62 41.19, 485.05 45.79, 498.46 56.29" stroke="#1e1e1e" stroke-width="2" fill="none"></path></g></g><mask></mask><g stroke-linecap="round"><g transform="translate(128.8515625 387.7580440471815) rotate(0 -34.91428125 16.782501413909245)"><path d="M0.5 -0.34 C-11 1.88, -57.31 7.76, -69.08 13.39 C-80.85 19.03, -70.17 30.3, -70.12 33.48 M-0.7 -1.56 C-12.28 0.77, -57.91 8.37, -69.64 14.42 C-81.36 20.47, -70.7 31.66, -71.04 34.75" stroke="#1e1e1e" stroke-width="2" fill="none"></path></g><g transform="translate(128.8515625 387.7580440471815) rotate(0 -34.91428125 16.782501413909245)"><path d="M-77.33 27.5 C-75.76 30.18, -74.44 31.45, -71.04 34.75 M-77.33 27.5 C-75.39 29.53, -73.23 31.87, -71.04 34.75" stroke="#1e1e1e" stroke-width="2" fill="none"></path></g><g transform="translate(128.8515625 387.7580440471815) rotate(0 -34.91428125 16.782501413909245)"><path d="M-71.2 25.15 C-71.41 28.54, -71.88 30.5, -71.04 34.75 M-71.2 25.15 C-71.03 27.81, -70.66 30.84, -71.04 34.75" stroke="#1e1e1e" stroke-width="2" fill="none"></path></g></g><mask></mask><g stroke-linecap="round"><g transform="translate(222.6177404606981 388.537109375) rotate(0 -10.15637023034904 16.392968749999994)"><path d="M0.75 -0.97 C-2.77 4.53, -17.27 27.26, -20.6 32.7 M-0.32 1.13 C-4.06 6.86, -18.51 28.98, -21.7 34.19" stroke="#1e1e1e" stroke-width="2" fill="none"></path></g><g transform="translate(222.6177404606981 388.537109375) rotate(0 -10.15637023034904 16.392968749999994)"><path d="M-17.53 15.36 C-20.58 21.34, -20.58 29.92, -21.7 34.19 M-17.53 15.36 C-17.66 19.38, -18.5 23.41, -21.7 34.19" stroke="#1e1e1e" stroke-width="2" fill="none"></path></g><g transform="translate(222.6177404606981 388.537109375) rotate(0 -10.15637023034904 16.392968749999994)"><path d="M-6.41 22.45 C-13.23 26.08, -17.03 32.23, -21.7 34.19 M-6.41 22.45 C-8.84 24.97, -11.97 27.53, -21.7 34.19" stroke="#1e1e1e" stroke-width="2" fill="none"></path></g></g><mask></mask><g stroke-linecap="round"><g transform="translate(344.8828125 387.6753293950584) rotate(0 35.24609375 16.82385873997083)"><path d="M-0.29 -0.09 C11.51 2.29, 59.72 7.76, 71.54 13.33 C83.35 18.89, 70.6 29.87, 70.58 33.28 M1.76 -1.18 C13.42 1.39, 59.79 8.34, 71.14 14.27 C82.49 20.21, 69.69 30.95, 69.86 34.41" stroke="#1e1e1e" stroke-width="2" fill="none"></path></g><g transform="translate(344.8828125 387.6753293950584) rotate(0 35.24609375 16.82385873997083)"><path d="M70.91 24.87 C70.38 29.16, 69.17 31.85, 69.86 34.41 M70.91 24.87 C71.07 27.59, 70.77 30.39, 69.86 34.41" stroke="#1e1e1e" stroke-width="2" fill="none"></path></g><g transform="translate(344.8828125 387.6753293950584) rotate(0 35.24609375 16.82385873997083)"><path d="M76.8 27.78 C74.16 31, 70.81 32.64, 69.86 34.41 M76.8 27.78 C75.35 29.72, 73.46 31.74, 69.86 34.41" stroke="#1e1e1e" stroke-width="2" fill="none"></path></g></g><mask></mask><g stroke-linecap="round"><g transform="translate(853.390625 426.64348018204714) rotate(0 -30.905304687500006 72.3609747527264)"><path d="M1.04 -1.12 C-9.2 8.22, -56.35 31.64, -61.73 55.97 C-67.1 80.31, -36.29 130.06, -31.2 144.91 M0.13 0.9 C-10.23 10.43, -57.36 33.08, -62.63 57.32 C-67.9 81.56, -36.86 131.48, -31.5 146.32" stroke="#1e1e1e" stroke-width="2" fill="none"></path></g><g transform="translate(853.390625 426.64348018204714) rotate(0 -30.905304687500006 72.3609747527264)"><path d="M-52.88 125.28 C-48.87 131.04, -41.71 138.19, -31.5 146.32 M-52.88 125.28 C-45.23 132.64, -40.05 137.85, -31.5 146.32" stroke="#1e1e1e" stroke-width="2" fill="none"></path></g><g transform="translate(853.390625 426.64348018204714) rotate(0 -30.905304687500006 72.3609747527264)"><path d="M-34.35 116.46 C-35.46 124.81, -33.41 134.4, -31.5 146.32 M-34.35 116.46 C-32.48 126.66, -33.15 134.65, -31.5 146.32" stroke="#1e1e1e" stroke-width="2" fill="none"></path></g></g><mask></mask><g stroke-linecap="round"><g transform="translate(1549.78053125 380.095703125) rotate(0 6.971673672249949 34.92226562500002)"><path d="M-0.99 -0.78 C0.4 4.28, 6.9 19.55, 9.28 31.29 C11.66 43.02, 12.73 63.38, 13.31 69.65 M0.68 1.42 C1.92 6.62, 6.88 21.32, 8.8 32.9 C10.72 44.47, 11.61 64.76, 12.21 70.86" stroke="#1e1e1e" stroke-width="2" fill="none"></path></g><g transform="translate(1549.78053125 380.095703125) rotate(0 6.971673672249949 34.92226562500002)"><path d="M4.2 53.03 C6.06 61.2, 10.55 65.4, 12.21 70.86 M4.2 53.03 C6.06 57.27, 7.78 63.13, 12.21 70.86" stroke="#1e1e1e" stroke-width="2" fill="none"></path></g><g transform="translate(1549.78053125 380.095703125) rotate(0 6.971673672249949 34.92226562500002)"><path d="M17.54 52.06 C14.42 60.48, 13.92 65.04, 12.21 70.86 M17.54 52.06 C15.6 56.47, 13.54 62.61, 12.21 70.86" stroke="#1e1e1e" stroke-width="2" fill="none"></path></g></g><mask></mask><g stroke-linecap="round"><g transform="translate(369.784 471.623046875) rotate(0 -25.903500000000008 21.850000000000023)"><path d="M0.88 0.14 C-7.69 4.32, -43.46 17.2, -52.44 24.3 C-61.42 31.4, -53.06 39.69, -53.01 42.74 M-0.11 -0.84 C-8.21 3.6, -41.63 18.34, -50.07 25.74 C-58.5 33.13, -50.42 40.65, -50.74 43.55" stroke="#1e1e1e" stroke-width="2" fill="none"></path></g><g transform="translate(369.784 471.623046875) rotate(0 -25.903500000000008 21.850000000000023)"><path d="M-56.82 36.12 C-55.44 37.18, -54.39 38.34, -50.74 43.55 M-56.82 36.12 C-55.89 37.77, -54.64 39.37, -50.74 43.55" stroke="#1e1e1e" stroke-width="2" fill="none"></path></g><g transform="translate(369.784 471.623046875) rotate(0 -25.903500000000008 21.850000000000023)"><path d="M-50.62 33.95 C-50.6 35.53, -50.9 37.16, -50.74 43.55 M-50.62 33.95 C-51.06 36.02, -51.17 38.09, -50.74 43.55" stroke="#1e1e1e" stroke-width="2" fill="none"></path></g></g><mask></mask><g stroke-linecap="round"><g transform="translate(460.966 471.623046875) rotate(0 25.903500000000008 21.850000000000023)"><path d="M-0.64 -0.2 C7.65 3.7, 41.92 16.4, 50.61 23.54 C59.3 30.67, 51.48 39.27, 51.52 42.62 M1.23 -1.35 C9.79 2.66, 44.46 17.12, 52.69 24.57 C60.92 32.02, 50.95 40.02, 50.6 43.37" stroke="#1e1e1e" stroke-width="2" fill="none"></path></g><g transform="translate(460.966 471.623046875) rotate(0 25.903500000000008 21.850000000000023)"><path d="M51.87 33.85 C51.25 36.44, 50.16 40.72, 50.6 43.37 M51.87 33.85 C51.06 35.77, 50.97 37.87, 50.6 43.37" stroke="#1e1e1e" stroke-width="2" fill="none"></path></g><g transform="translate(460.966 471.623046875) rotate(0 25.903500000000008 21.850000000000023)"><path d="M57.69 36.9 C54.89 38.32, 51.63 41.46, 50.6 43.37 M57.69 36.9 C55.68 38.18, 54.37 39.64, 50.6 43.37" stroke="#1e1e1e" stroke-width="2" fill="none"></path></g></g><mask></mask><g transform="translate(772.2450790405273 248.130859375) rotate(0 120.62992095947266 12.5)"><text x="120.62992095947266" y="0" font-family="Segoe UI Emoji" font-size="20px" fill="#1e1e1e" text-anchor="middle" style="white-space: pre;" direction="ltr" dominant-baseline="text-before-edge">To-Do App Requirements</text></g><g transform="translate(152.49725341796875 353.037109375) rotate(0 84.36993408203125 12.5)"><text x="84.36993408203125" y="0" font-family="Segoe UI Emoji" font-size="20px" fill="#1e1e1e" text-anchor="middle" style="white-space: pre;" direction="ltr" dominant-baseline="text-before-edge">User Management</text></g><g transform="translate(873.9553756713867 394.427734375) rotate(0 86.23993682861328 12.5)"><text x="86.23993682861328" y="0" font-family="Segoe UI Emoji" font-size="20px" fill="#1e1e1e" text-anchor="middle" style="white-space: pre;" direction="ltr" dominant-baseline="text-before-edge">Task Management</text></g><g transform="translate(1438.8486633300781 342.623046875) rotate(0 96.20993041992188 12.5)"><text x="96.20993041992188" y="0" font-family="Segoe UI Emoji" font-size="20px" fill="#1e1e1e" text-anchor="middle" style="white-space: pre;" direction="ltr" dominant-baseline="text-before-edge">Notification System</text></g><g transform="translate(22.883468627929688 436.623046875) rotate(0 36.13996887207031 12.5)"><text x="36.13996887207031" y="0" font-family="Segoe UI Emoji" font-size="20px" fill="#1e1e1e" text-anchor="middle" style="white-space: pre;" direction="ltr" dominant-baseline="text-before-edge">Sign Up</text></g><g transform="translate(168.12471771240234 436.623046875) rotate(0 34.179969787597656 12.5)"><text x="34.179969787597656" y="0" font-family="Segoe UI Emoji" font-size="20px" fill="#1e1e1e" text-anchor="middle" style="white-space: pre;" direction="ltr" dominant-baseline="text-before-edge">Sign In</text></g><g transform="translate(320.95507204532623 436.623046875) rotate(0 94.41992795467377 12.5)"><text x="94.41992795467377" y="0" font-family="Segoe UI Emoji" font-size="20px" fill="#1e1e1e" text-anchor="middle" style="white-space: pre;" direction="ltr" dominant-baseline="text-before-edge">Profile Management</text></g><g transform="translate(798.4541244506836 578) rotate(0 28.749977111816406 12.5)"><text x="28.749977111816406" y="0" font-family="Segoe UI Emoji" font-size="20px" fill="#1e1e1e" text-anchor="middle" style="white-space: pre;" direction="ltr" dominant-baseline="text-before-edge">CURD</text></g><g transform="translate(1485.0066162347794 462.767578125) rotate(0 91.21994626522064 12.5)"><text x="91.21994626522064" y="0" font-family="Segoe UI Emoji" font-size="20px" fill="#1e1e1e" text-anchor="middle" style="white-space: pre;" direction="ltr" dominant-baseline="text-before-edge">Push Notifications</text></g><g transform="translate(261.18660095334053 530.623046875) rotate(0 56.78996154665947 12.5)"><text x="56.78996154665947" y="0" font-family="Segoe UI Emoji" font-size="20px" fill="#1e1e1e" text-anchor="middle" style="white-space: pre;" direction="ltr" dominant-baseline="text-before-edge">View Profile</text></g><g transform="translate(455.2734680175781 530.623046875) rotate(0 57.499969482421875 12.5)"><text x="57.499969482421875" y="0" font-family="Segoe UI Emoji" font-size="20px" fill="#1e1e1e" text-anchor="middle" style="white-space: pre;" direction="ltr" dominant-baseline="text-before-edge">Edit Profile</text></g><g stroke-linecap="round" transform="translate(1043.4375 733.0185546875) rotate(0 41.1796875 17.5)"><path d="M8.75 0 C33.82 1.1, 56.42 0.16, 73.61 0 M8.75 0 C26.38 0.2, 43.08 -0.3, 73.61 0 M73.61 0 C77.64 -1.4, 82.63 1.65, 82.36 8.75 M73.61 0 C77.74 2.18, 81.84 3.98, 82.36 8.75 M82.36 8.75 C83.57 11.74, 83.52 17.45, 82.36 26.25 M82.36 8.75 C82.41 15.09, 82.43 21.09, 82.36 26.25 M82.36 26.25 C83.41 30.35, 77.76 33.17, 73.61 35 M82.36 26.25 C83.16 32.79, 80.83 35.17, 73.61 35 M73.61 35 C51.99 35.3, 32.71 35.82, 8.75 35 M73.61 35 C56.55 34.81, 38.24 35.48, 8.75 35 M8.75 35 C4.12 35.87, -1.44 32.09, 0 26.25 M8.75 35 C1.77 33.68, 0.08 32.79, 0 26.25 M0 26.25 C-0.51 21.23, 1.6 18.59, 0 8.75 M0 26.25 C-0.37 19.93, 0.69 13.62, 0 8.75 M0 8.75 C-0.96 3.35, 3.38 0.08, 8.75 0 M0 8.75 C0.82 3.57, 5.08 -1.49, 8.75 0" stroke="#1e1e1e" stroke-width="2" fill="none"></path></g><g transform="translate(1060.5272064208984 738.0185546875) rotate(0 24.089981079101562 12.5)"><text x="24.089981079101562" y="0" font-family="Segoe UI Emoji" font-size="20px" fill="#1e1e1e" text-anchor="middle" style="white-space: pre;" direction="ltr" dominant-baseline="text-before-edge">Task</text></g><g stroke-linecap="round" transform="translate(1066.8359375 559.4091796875) rotate(0 47.1640625 30)"><path d="M15 0 C31.96 -1.32, 47.41 0.01, 79.33 0 M15 0 C31.43 0.93, 45.9 0.06, 79.33 0 M79.33 0 C89.07 0.81, 95.69 5.98, 94.33 15 M79.33 0 C90.62 -0.58, 94.13 4.68, 94.33 15 M94.33 15 C93.18 27.53, 94.44 35.55, 94.33 45 M94.33 15 C94.27 22.5, 94.92 29.11, 94.33 45 M94.33 45 C93.74 53.58, 87.79 59, 79.33 60 M94.33 45 C94.41 55.81, 89.49 58.95, 79.33 60 M79.33 60 C53.7 60.52, 27 57.89, 15 60 M79.33 60 C56.06 59.7, 31.36 59.57, 15 60 M15 60 C6.76 58.67, 1.21 56.71, 0 45 M15 60 C2.99 57.77, -0.05 55.1, 0 45 M0 45 C1.28 37.29, -1.42 31.32, 0 15 M0 45 C-0.13 35.18, 0.06 23.69, 0 15 M0 15 C1.96 3.01, 4.05 -0.36, 15 0 M0 15 C-2.21 5.01, 4.27 -0.67, 15 0" stroke="#1e1e1e" stroke-width="2" fill="none"></path></g><g transform="translate(1076.2000274658203 564.4091796875) rotate(0 37.79997253417969 25)"><text x="37.79997253417969" y="0" font-family="Segoe UI Emoji" font-size="20px" fill="#1e1e1e" text-anchor="middle" style="white-space: pre;" direction="ltr" dominant-baseline="text-before-edge">List of </text><text x="37.79997253417969" y="25" font-family="Segoe UI Emoji" font-size="20px" fill="#1e1e1e" text-anchor="middle" style="white-space: pre;" direction="ltr" dominant-baseline="text-before-edge">tasks</text></g><g stroke-linecap="round"><g transform="translate(884.2249604425075 596.4581089615839) rotate(0 94.2664145261146 67.78022286295806)"><path d="M0.26 -0.5 C31.69 22.49, 156.48 114.27, 187.99 136.75 M-1.06 -1.81 C30.21 20.98, 155.08 112.44, 186.76 135.25" stroke="#1e1e1e" stroke-width="2" fill="none"></path></g><g transform="translate(884.2249604425075 596.4581089615839) rotate(0 94.2664145261146 67.78022286295806)"><path d="M157.93 126.97 C164.32 128.11, 174.44 132.48, 186.76 135.25 M157.93 126.97 C163.72 128.96, 169.88 130.84, 186.76 135.25" stroke="#1e1e1e" stroke-width="2" fill="none"></path></g><g transform="translate(884.2249604425075 596.4581089615839) rotate(0 94.2664145261146 67.78022286295806)"><path d="M170 110.38 C173.17 115.75, 180.24 124.32, 186.76 135.25 M170 110.38 C173.36 115.74, 177.1 120.95, 186.76 135.25" stroke="#1e1e1e" stroke-width="2" fill="none"></path></g></g><mask></mask><g stroke-linecap="round"><g transform="translate(885.4306640625 594.3380153657157) rotate(0 90.20263671875 2.4036597710014007)"><path d="M0.47 0.03 C30.49 0.91, 150.3 3.92, 180.35 4.75 M-0.75 -1.01 C29.1 0.12, 149.22 5.02, 179.38 6.26" stroke="#1e1e1e" stroke-width="2" fill="none"></path></g><g transform="translate(885.4306640625 594.3380153657157) rotate(0 90.20263671875 2.4036597710014007)"><path d="M150.79 15.36 C159.94 12.28, 168.86 10.09, 179.38 6.26 M150.79 15.36 C160.22 12.19, 168.81 8.94, 179.38 6.26" stroke="#1e1e1e" stroke-width="2" fill="none"></path></g><g transform="translate(885.4306640625 594.3380153657157) rotate(0 90.20263671875 2.4036597710014007)"><path d="M151.63 -5.14 C160.42 -1.72, 169.08 2.59, 179.38 6.26 M151.63 -5.14 C160.6 -1.82, 168.92 1.43, 179.38 6.26" stroke="#1e1e1e" stroke-width="2" fill="none"></path></g></g><mask></mask><g stroke-linecap="round" transform="translate(995.02734375 475.8935546875) rotate(0 82.740234375 28.716796875)"><path d="M14.36 0 C47.13 -2.62, 79.89 0.13, 151.12 0 M14.36 0 C58.36 -0.42, 104.26 -1.09, 151.12 0 M151.12 0 C159.53 1.21, 164.25 3.35, 165.48 14.36 M151.12 0 C159.7 1.1, 166.11 4.27, 165.48 14.36 M165.48 14.36 C164.29 25.87, 167.58 36.86, 165.48 43.08 M165.48 14.36 C165.13 19.43, 165.29 26.72, 165.48 43.08 M165.48 43.08 C165.11 53.95, 160.22 56.32, 151.12 57.43 M165.48 43.08 C165.25 51.35, 161.73 58.49, 151.12 57.43 M151.12 57.43 C98.39 59.83, 43.35 59.76, 14.36 57.43 M151.12 57.43 C121.82 57.36, 92.05 57.82, 14.36 57.43 M14.36 57.43 C4.78 55.73, 0.97 53.87, 0 43.08 M14.36 57.43 C3.98 59.34, -2.06 52.44, 0 43.08 M0 43.08 C-1.46 37.83, 0.03 30.4, 0 14.36 M0 43.08 C0.56 33.57, -0.96 25.97, 0 14.36 M0 14.36 C1.67 3.66, 4.57 0.92, 14.36 0 M0 14.36 C-0.53 4.82, 4.71 -1.12, 14.36 0" stroke="#1e1e1e" stroke-width="2" fill="none"></path></g><g transform="translate(1006.9576208489016 492.1103515625) rotate(0 70.80995727609843 12.5)"><text x="70.80995727609843" y="0" font-family="Segoe UI Emoji" font-size="20px" fill="#1e1e1e" text-anchor="middle" style="white-space: pre;" direction="ltr" dominant-baseline="text-before-edge">Task category</text></g><g stroke-linecap="round"><g transform="translate(885.97265625 588.7841796875) rotate(0 51.27609124066839 -41.203125)"><path d="M-0.1 0.57 C17.33 -13.32, 86.21 -68.66, 103.43 -82.49 M-1.61 -0.17 C15.83 -13.95, 85.53 -67.5, 102.95 -81" stroke="#1e1e1e" stroke-width="2" fill="none"></path></g><g transform="translate(885.97265625 588.7841796875) rotate(0 51.27609124066839 -41.203125)"><path d="M86.9 -55.66 C91 -59.44, 93.24 -64.98, 102.95 -81 M86.9 -55.66 C90.64 -63.07, 97.32 -70.15, 102.95 -81" stroke="#1e1e1e" stroke-width="2" fill="none"></path></g><g transform="translate(885.97265625 588.7841796875) rotate(0 51.27609124066839 -41.203125)"><path d="M74.36 -71.9 C81.19 -72.3, 86.04 -74.46, 102.95 -81 M74.36 -71.9 C81.89 -74.55, 92.28 -76.81, 102.95 -81" stroke="#1e1e1e" stroke-width="2" fill="none"></path></g></g><mask></mask><g stroke-linecap="round" transform="translate(792.20703125 10) rotate(0 91.705078125 36.177734375)"><path d="M18.09 0 C66.35 -1.42, 111.39 -0.42, 165.32 0 M18.09 0 C49.35 -1.73, 81.29 -1.38, 165.32 0 M165.32 0 C179.36 -0.41, 184.26 6.49, 183.41 18.09 M165.32 0 C176.78 1.72, 183.59 5.29, 183.41 18.09 M183.41 18.09 C185.06 29.75, 182.68 46.61, 183.41 54.27 M183.41 18.09 C183.07 29.89, 182.26 40.75, 183.41 54.27 M183.41 54.27 C181.49 66.15, 178.94 73.64, 165.32 72.36 M183.41 54.27 C181.12 65.45, 177.42 74.04, 165.32 72.36 M165.32 72.36 C112.16 71.37, 60.69 71.09, 18.09 72.36 M165.32 72.36 C107.19 71.92, 47.41 71.18, 18.09 72.36 M18.09 72.36 C6.99 70.71, 0.61 65.66, 0 54.27 M18.09 72.36 C7.49 73.99, -2.16 64.38, 0 54.27 M0 54.27 C-0.42 41.6, 1.13 27.16, 0 18.09 M0 54.27 C0.03 41.67, 0.7 30.37, 0 18.09 M0 18.09 C-1.69 5.25, 7.56 -1.52, 18.09 0 M0 18.09 C0.87 6.83, 5.91 -1.97, 18.09 0" stroke="#1e1e1e" stroke-width="2" fill="none"></path></g><g transform="translate(804.7121658325195 33.677734375) rotate(0 79.19994354248047 12.5)"><text x="79.19994354248047" y="0" font-family="Segoe UI Emoji" font-size="20px" fill="#1e1e1e" text-anchor="middle" style="white-space: pre;" direction="ltr" dominant-baseline="text-before-edge">Customizable UI</text></g><g stroke-linecap="round" transform="translate(1276.9375 563.546875) rotate(0 53.134765625 30)"><path d="M15 0 C44.75 -1.65, 74.13 -0.08, 91.27 0 M15 0 C36.32 -0.72, 57.97 -0.28, 91.27 0 M91.27 0 C102.45 -1.91, 106 4.82, 106.27 15 M91.27 0 C100.2 -1.37, 104.88 4.42, 106.27 15 M106.27 15 C107.42 26.04, 107.27 36.86, 106.27 45 M106.27 15 C105.91 27.84, 106.28 39.71, 106.27 45 M106.27 45 C107.75 53.81, 101.99 61.85, 91.27 60 M106.27 45 C104.81 55.37, 103.21 57.77, 91.27 60 M91.27 60 C71.72 61.9, 55.18 60.61, 15 60 M91.27 60 C66.11 59.81, 42.06 61.3, 15 60 M15 60 C5.97 58.5, -1.62 56.48, 0 45 M15 60 C4.2 58.39, -0.73 54.2, 0 45 M0 45 C-1.82 34.72, 1.15 27.8, 0 15 M0 45 C0.25 38.37, -0.3 31.56, 0 15 M0 15 C1.19 6.45, 6.58 -0.58, 15 0 M0 15 C2.27 5.97, 5.25 1.13, 15 0" stroke="#1e1e1e" stroke-width="2" fill="none"></path></g><g transform="translate(1283.2723007202148 568.546875) rotate(0 46.799964904785156 25)"><text x="46.799964904785156" y="0" font-family="Segoe UI Emoji" font-size="20px" fill="#1e1e1e" text-anchor="middle" style="white-space: pre;" direction="ltr" dominant-baseline="text-before-edge">Progress </text><text x="46.799964904785156" y="25" font-family="Segoe UI Emoji" font-size="20px" fill="#1e1e1e" text-anchor="middle" style="white-space: pre;" direction="ltr" dominant-baseline="text-before-edge">tracking</text></g><g stroke-linecap="round"><g transform="translate(1063.578125 406.14453125) rotate(0 120.55859375 78.33203125)"><path d="M-0.83 0.68 C32.24 8.39, 158.75 20.92, 199.26 46.76 C239.77 72.6, 235.33 137.22, 242.21 155.72 M0.93 0 C33.74 7.35, 157.95 19.11, 198.13 45.2 C238.31 71.29, 234.97 138.11, 242.02 156.53" stroke="#1e1e1e" stroke-width="2" fill="none"></path></g><g transform="translate(1063.578125 406.14453125) rotate(0 120.55859375 78.33203125)"><path d="M226.84 130.66 C233.69 139.72, 239.92 151.68, 242.02 156.53 M226.84 130.66 C230.3 136.86, 233.16 141.26, 242.02 156.53" stroke="#1e1e1e" stroke-width="2" fill="none"></path></g><g transform="translate(1063.578125 406.14453125) rotate(0 120.55859375 78.33203125)"><path d="M247.02 126.96 C246.44 137.24, 245.23 150.57, 242.02 156.53 M247.02 126.96 C246 134.16, 244.4 139.38, 242.02 156.53" stroke="#1e1e1e" stroke-width="2" fill="none"></path></g></g><mask></mask><g stroke-linecap="round"><g transform="translate(1278.4765625 592.35546875) rotate(0 -58.15625 -0.12973329643943998)"><path d="M0.53 -0.73 C-18.86 -0.83, -97.14 0.23, -116.48 0.32 M-0.66 1.5 C-20.2 0.97, -98.32 -1.44, -117.51 -1.5" stroke="#1e1e1e" stroke-width="2" fill="none"></path></g><g transform="translate(1278.4765625 592.35546875) rotate(0 -58.15625 -0.12973329643943998)"><path d="M-89.13 -11.22 C-98.45 -8.57, -104.45 -4.11, -117.51 -1.5 M-89.13 -11.22 C-96.75 -8.4, -107.17 -4.8, -117.51 -1.5" stroke="#1e1e1e" stroke-width="2" fill="none"></path></g><g transform="translate(1278.4765625 592.35546875) rotate(0 -58.15625 -0.12973329643943998)"><path d="M-89.52 9.3 C-98.88 6.04, -104.77 4.57, -117.51 -1.5 M-89.52 9.3 C-97.22 5.89, -107.52 3.27, -117.51 -1.5" stroke="#1e1e1e" stroke-width="2" fill="none"></path></g></g><mask></mask><g stroke-linecap="round"><g transform="translate(893.0037851618589 236.52734375) rotate(0 -2.9898986935030507 -76.5859375)"><path d="M-0.54 -1.09 C-1.77 -26.71, -5.91 -128.22, -6.83 -153.53 M1.38 0.95 C0.47 -24.51, -3.18 -126.77, -4.57 -152.17" stroke="#1e1e1e" stroke-width="2" fill="none"></path></g><g transform="translate(893.0037851618589 236.52734375) rotate(0 -2.9898986935030507 -76.5859375)"><path d="M6.91 -124.46 C1.07 -135.55, -1.69 -143.94, -4.57 -152.17 M6.91 -124.46 C3.89 -133.56, -0.78 -142.46, -4.57 -152.17" stroke="#1e1e1e" stroke-width="2" fill="none"></path></g><g transform="translate(893.0037851618589 236.52734375) rotate(0 -2.9898986935030507 -76.5859375)"><path d="M-13.59 -123.56 C-12.32 -134.88, -7.96 -143.58, -4.57 -152.17 M-13.59 -123.56 C-10.03 -133.04, -8.11 -142.23, -4.57 -152.17" stroke="#1e1e1e" stroke-width="2" fill="none"></path></g></g><mask></mask><g stroke-linecap="round" transform="translate(1280.5234375 699.80859375) rotate(0 115.345703125 42.5)"><path d="M21.25 0 C90.81 0.38, 158.27 -2.47, 209.44 0 M21.25 0 C97.16 -1.24, 170.94 -1.29, 209.44 0 M209.44 0 C225.12 0.7, 231.66 6.29, 230.69 21.25 M209.44 0 C224.76 -1.85, 232.94 7.87, 230.69 21.25 M230.69 21.25 C230.6 32.26, 232.04 39.45, 230.69 63.75 M230.69 21.25 C230.65 33.42, 231.12 45.13, 230.69 63.75 M230.69 63.75 C230.57 77.74, 225.26 85.12, 209.44 85 M230.69 63.75 C232.56 75.93, 224.12 86.01, 209.44 85 M209.44 85 C158 82.31, 108.08 82.13, 21.25 85 M209.44 85 C142.86 85.78, 75.55 85.51, 21.25 85 M21.25 85 C6.61 85.11, 0.55 76.74, 0 63.75 M21.25 85 C6.6 83.32, -0.29 76.57, 0 63.75 M0 63.75 C1.24 49.23, 0.82 33.86, 0 21.25 M0 63.75 C-1 51.25, -0.04 37.26, 0 21.25 M0 21.25 C-0.34 6.15, 6.27 1.23, 21.25 0 M0 21.25 C0.88 7.59, 5.02 0.1, 21.25 0" stroke="#1e1e1e" stroke-width="2" fill="none"></path></g><g transform="translate(1334.1291743516922 717.30859375) rotate(0 61.7399662733078 25)"><text x="61.7399662733078" y="0" font-family="Segoe UI Emoji" font-size="20px" fill="#1e1e1e" text-anchor="middle" style="white-space: pre;" direction="ltr" dominant-baseline="text-before-edge">Notes and </text><text x="61.7399662733078" y="25" font-family="Segoe UI Emoji" font-size="20px" fill="#1e1e1e" text-anchor="middle" style="white-space: pre;" direction="ltr" dominant-baseline="text-before-edge">attachments</text></g><g stroke-linecap="round"><g transform="translate(1127.859375 746.4739381099652) rotate(0 75.640625 -0.8795955026778302)"><path d="M0.95 -0.27 C26.28 -0.32, 126.23 -0.99, 151.31 -1.16 M-0.01 -1.46 C25.22 -1.79, 125.26 -2.65, 150.37 -2.97" stroke="#1e1e1e" stroke-width="2" fill="none"></path></g><g transform="translate(1127.859375 746.4739381099652) rotate(0 75.640625 -0.8795955026778302)"><path d="M122.29 7.59 C128.8 4.82, 137.14 2.36, 150.37 -2.97 M122.29 7.59 C132.52 3.91, 141.2 0.92, 150.37 -2.97" stroke="#1e1e1e" stroke-width="2" fill="none"></path></g><g transform="translate(1127.859375 746.4739381099652) rotate(0 75.640625 -0.8795955026778302)"><path d="M122.07 -12.94 C128.49 -10.67, 136.88 -8.09, 150.37 -2.97 M122.07 -12.94 C132.38 -9.68, 141.14 -5.74, 150.37 -2.97" stroke="#1e1e1e" stroke-width="2" fill="none"></path></g></g><mask></mask><g transform="translate(1168.7109375 720.5008544921875) rotate(0 19.599609375 12.5)"><text x="0" y="0" font-family="Segoe UI Emoji" font-size="20px" fill="#1e1e1e" text-anchor="start" style="white-space: pre;" direction="ltr" dominant-baseline="text-before-edge">With</text></g><g stroke-linecap="round" transform="translate(1296.95703125 818.2508544921875) rotate(0 103.421875 32.337890625)"><path d="M16.17 0 C68.74 2.96, 118.09 0.58, 190.67 0 M16.17 0 C82.31 -0.22, 150.21 -1, 190.67 0 M190.67 0 C199.49 0.87, 208.08 3.77, 206.84 16.17 M190.67 0 C200.83 -1.23, 206.86 7.09, 206.84 16.17 M206.84 16.17 C205.72 27.71, 208.16 37.87, 206.84 48.51 M206.84 16.17 C207.67 23.49, 207.24 30.32, 206.84 48.51 M206.84 48.51 C208.68 60.16, 199.6 64.35, 190.67 64.68 M206.84 48.51 C206.01 61.5, 201.98 66.64, 190.67 64.68 M190.67 64.68 C123.05 64.16, 54.49 64.94, 16.17 64.68 M190.67 64.68 C152.69 65.67, 113.46 65.72, 16.17 64.68 M16.17 64.68 C6.14 64.87, -0.01 59.85, 0 48.51 M16.17 64.68 C6.63 64.59, -0.01 58.86, 0 48.51 M0 48.51 C-0.1 40.21, 0.21 33.24, 0 16.17 M0 48.51 C0.03 35.52, -1.01 22.36, 0 16.17 M0 16.17 C-1.66 5.81, 5.9 1.27, 16.17 0 M0 16.17 C-0.33 5.17, 4.79 -1.26, 16.17 0" stroke="#1e1e1e" stroke-width="2" fill="none"></path></g><g transform="translate(1327.6989669799805 838.0887451171875) rotate(0 72.67993927001953 12.5)"><text x="72.67993927001953" y="0" font-family="Segoe UI Emoji" font-size="20px" fill="#1e1e1e" text-anchor="middle" style="white-space: pre;" direction="ltr" dominant-baseline="text-before-edge">Task reminders</text></g><g stroke-linecap="round"><g transform="translate(1127.9765625 751.161933679617) rotate(0 83.990234375 48.87610823554195)"><path d="M-0.46 0.15 C27.73 16.47, 140.73 81.53, 168.79 97.77 M1.5 -0.82 C29.63 15.72, 140.67 82.71, 168.27 99.32" stroke="#1e1e1e" stroke-width="2" fill="none"></path></g><g transform="translate(1127.9765625 751.161933679617) rotate(0 83.990234375 48.87610823554195)"><path d="M138.83 93.56 C147.04 96.59, 154.8 96.7, 168.27 99.32 M138.83 93.56 C147.97 94.14, 156.4 96.68, 168.27 99.32" stroke="#1e1e1e" stroke-width="2" fill="none"></path></g><g transform="translate(1127.9765625 751.161933679617) rotate(0 83.990234375 48.87610823554195)"><path d="M149.42 75.98 C154.74 83.73, 159.63 88.6, 168.27 99.32 M149.42 75.98 C155.36 81.66, 160.75 89.23, 168.27 99.32" stroke="#1e1e1e" stroke-width="2" fill="none"></path></g></g><mask></mask><g transform="translate(1198.8203125 772.4461669921875) rotate(0 19.599609375 12.5)"><text x="0" y="0" font-family="Segoe UI Emoji" font-size="20px" fill="#1e1e1e" text-anchor="start" style="white-space: pre;" direction="ltr" dominant-baseline="text-before-edge">With</text></g><g stroke-linecap="round"><g transform="translate(1112.9091598608547 622.0125732421875) rotate(0 -11.704579930427371 54.46875)"><path d="M0.4 0.21 C-3.59 18.4, -18.98 91.35, -23.15 109.44 M-0.85 -0.72 C-5.04 17.07, -20.38 89.13, -23.96 107.58" stroke="#1e1e1e" stroke-width="2" fill="none"></path></g><g transform="translate(1112.9091598608547 622.0125732421875) rotate(0 -11.704579930427371 54.46875)"><path d="M-28.35 77.9 C-26.33 89.09, -24.25 97.44, -23.96 107.58 M-28.35 77.9 C-26.1 86.67, -25.89 94.08, -23.96 107.58" stroke="#1e1e1e" stroke-width="2" fill="none"></path></g><g transform="translate(1112.9091598608547 622.0125732421875) rotate(0 -11.704579930427371 54.46875)"><path d="M-8.25 82.03 C-13.53 91.79, -18.75 98.64, -23.96 107.58 M-8.25 82.03 C-11.76 89.72, -17.27 95.95, -23.96 107.58" stroke="#1e1e1e" stroke-width="2" fill="none"></path></g></g><mask></mask><g transform="translate(1106.5859375 659.5008544921875) rotate(0 35.556640625 12.5)"><text x="0" y="0" font-family="Segoe UI Emoji" font-size="20px" fill="#1e1e1e" text-anchor="start" style="white-space: pre;" direction="ltr" dominant-baseline="text-before-edge">Contains</text></g><g stroke-linecap="round"><g transform="translate(1509.22265625 860.2196044921875) rotate(0 49.90625 -184)"><path d="M0.84 -0.63 C17.49 -32.73, 91.09 -132.29, 100.81 -193.36 C110.53 -254.42, 66 -337.76, 59.15 -367.02 M-0.18 1.65 C16.32 -30.17, 90.62 -130.02, 100.39 -191.77 C110.16 -253.52, 65.12 -339.42, 58.44 -368.85" stroke="#1e1e1e" stroke-width="2" fill="none"></path></g><g transform="translate(1509.22265625 860.2196044921875) rotate(0 49.90625 -184)"><path d="M77.44 -345.63 C69.34 -352.63, 63.36 -362.9, 58.44 -368.85 M77.44 -345.63 C70.21 -354.12, 63.04 -362.95, 58.44 -368.85" stroke="#1e1e1e" stroke-width="2" fill="none"></path></g><g transform="translate(1509.22265625 860.2196044921875) rotate(0 49.90625 -184)"><path d="M58.07 -338.85 C57.35 -348.55, 58.7 -361.39, 58.44 -368.85 M58.07 -338.85 C58.2 -349.77, 58.43 -361.19, 58.44 -368.85" stroke="#1e1e1e" stroke-width="2" fill="none"></path></g></g><mask></mask><g transform="translate(1565.52734375 636.0867919921875) rotate(0 19.599609375 12.5)"><text x="0" y="0" font-family="Segoe UI Emoji" font-size="20px" fill="#1e1e1e" text-anchor="start" style="white-space: pre;" direction="ltr" dominant-baseline="text-before-edge">With</text></g><g stroke-linecap="round" transform="translate(1164.62109375 13.9827880859375) rotate(0 89.240234375 42.5)"><path d="M21.25 0 C70.79 -2.55, 118.81 -0.06, 157.23 0 M21.25 0 C61.76 1.51, 105.04 1.63, 157.23 0 M157.23 0 C173 -1.2, 178 7.28, 178.48 21.25 M157.23 0 C173.34 -1.71, 178.61 5.35, 178.48 21.25 M178.48 21.25 C178.09 32.6, 178.12 45.74, 178.48 63.75 M178.48 21.25 C179.4 35.68, 179.59 51.49, 178.48 63.75 M178.48 63.75 C178.12 79.52, 171.36 86.97, 157.23 85 M178.48 63.75 C179.23 77.37, 171.18 83.77, 157.23 85 M157.23 85 C110.77 87.42, 61.94 85.61, 21.25 85 M157.23 85 C124.09 84.22, 88.45 84.18, 21.25 85 M21.25 85 C6.03 85.07, -0.8 78.66, 0 63.75 M21.25 85 C8.48 86.04, 0.02 77.17, 0 63.75 M0 63.75 C-1.23 54.69, -1.48 44.04, 0 21.25 M0 63.75 C-0.08 51.28, -0.55 39.31, 0 21.25 M0 21.25 C-0.9 5.82, 6.72 1.95, 21.25 0 M0 21.25 C1.8 6.04, 8.97 -0.86, 21.25 0" stroke="#1e1e1e" stroke-width="2" fill="none"></path></g><g transform="translate(1172.8913650512695 18.9827880859375) rotate(0 80.96996307373047 37.5)"><text x="80.96996307373047" y="0" font-family="Segoe UI Emoji" font-size="20px" fill="#1e1e1e" text-anchor="middle" style="white-space: pre;" direction="ltr" dominant-baseline="text-before-edge">Integration with</text><text x="80.96996307373047" y="25" font-family="Segoe UI Emoji" font-size="20px" fill="#1e1e1e" text-anchor="middle" style="white-space: pre;" direction="ltr" dominant-baseline="text-before-edge">other tools and </text><text x="80.96996307373047" y="50" font-family="Segoe UI Emoji" font-size="20px" fill="#1e1e1e" text-anchor="middle" style="white-space: pre;" direction="ltr" dominant-baseline="text-before-edge">services</text></g><g stroke-linecap="round"><g transform="translate(1032.45703125 235.1351318359375) rotate(0 68.265625 -68.5078125)"><path d="M-0.52 0.46 C22.33 -22.55, 113.31 -114.09, 136.02 -137.11 M1.4 -0.35 C24.15 -23.23, 112 -112.9, 134.81 -135.62" stroke="#1e1e1e" stroke-width="2" fill="none"></path></g><g transform="translate(1032.45703125 235.1351318359375) rotate(0 68.265625 -68.5078125)"><path d="M122.26 -108.37 C125.42 -114.8, 127.09 -120.87, 134.81 -135.62 M122.26 -108.37 C125.65 -114.69, 128.72 -121.15, 134.81 -135.62" stroke="#1e1e1e" stroke-width="2" fill="none"></path></g><g transform="translate(1032.45703125 235.1351318359375) rotate(0 68.265625 -68.5078125)"><path d="M107.68 -122.81 C113.97 -126.19, 118.66 -129.26, 134.81 -135.62 M107.68 -122.81 C114.61 -125.7, 121.26 -128.61, 134.81 -135.62" stroke="#1e1e1e" stroke-width="2" fill="none"></path></g></g><mask></mask></svg>