<svg version="1.1" xmlns="http://www.w3.org/2000/svg" viewBox="0 0 1524.2040848210775 523.8386657423146" width="1524.2040848210775" height="523.8386657423146">
  <!-- svg-source:excalidraw -->
  
  <defs>
    <style class="style-fonts">
      @font-face {
        font-family: "Virgil";
        src: url("https://file%2B.vscode-resource.vscode-cdn.net/Users/anhquando/.vscode/extensions/pomdtr.excalidraw-editor-3.7.4/public//dist/excalidraw-assets/Virgil.woff2");
      }
      @font-face {
        font-family: "Cascadia";
        src: url("https://file%2B.vscode-resource.vscode-cdn.net/Users/anhquando/.vscode/extensions/pomdtr.excalidraw-editor-3.7.4/public//dist/excalidraw-assets/Cascadia.woff2");
      }
      @font-face {
        font-family: "Assistant";
        src: url("https://file%2B.vscode-resource.vscode-cdn.net/Users/anhquando/.vscode/extensions/pomdtr.excalidraw-editor-3.7.4/public//dist/excalidraw-assets/Assistant-Regular.woff2");
      }
    </style>
    
  </defs>
  <rect x="0" y="0" width="1524.2040848210775" height="523.8386657423146" fill="#ffffff"></rect><g transform="translate(13.883254577463049 220.31486634400562) rotate(0 61.337669372558594 11.19153384463948)"><text x="61.337669372558594" y="0" font-family="Virgil, Segoe UI Emoji" font-size="16.580050140206698px" fill="#000000" text-anchor="middle" style="white-space: pre;" direction="ltr" dominant-baseline="text-before-edge">Web Application</text></g><g stroke-linecap="round" transform="translate(10 141.11399371320454) rotate(0 65.22092395002153 39.033987671384125)"><path d="M0.35 -1.75 L129.61 -1.34 L131.19 79.46 L0.18 78.62" stroke="none" stroke-width="0" fill="#ffffff"></path><path d="M0 0 C47.07 1.29, 91.91 0.25, 130.44 0 M0 0 C37.53 -1.71, 74.91 -0.45, 130.44 0 M130.44 0 C128.12 25.7, 131.38 53.73, 130.44 78.07 M130.44 0 C131.69 28.15, 131.2 55.25, 130.44 78.07 M130.44 78.07 C85.63 78.54, 39.4 79.51, 0 78.07 M130.44 78.07 C82.17 78.05, 33.64 77.57, 0 78.07 M0 78.07 C1.32 49.49, -1.11 19.06, 0 0 M0 78.07 C-0.38 50.33, -0.59 22.51, 0 0" stroke="#000000" stroke-width="1" fill="none"></path></g><g stroke-linecap="round" transform="translate(10.181575293219339 141.13620738402597) rotate(0 64.79047928727982 6.358747304056578)"><path d="M-0.42 -0.67 L129.95 0.7 L129.67 12.99 L0.01 13.02" stroke="none" stroke-width="0" fill="#ced4da"></path><path d="M0 0 C43.54 -0.21, 86.43 -1.02, 129.58 0 M0 0 C50.42 0.72, 100.52 -0.03, 129.58 0 M129.58 0 C130.03 3.27, 129.9 6.97, 129.58 12.72 M129.58 0 C129.71 3.17, 129.79 6.77, 129.58 12.72 M129.58 12.72 C78.92 12.58, 28.17 12.5, 0 12.72 M129.58 12.72 C95.33 13.03, 62.1 13.35, 0 12.72 M0 12.72 C-0.25 7.5, 0.29 3.12, 0 0 M0 12.72 C-0.1 8.82, 0.07 4.72, 0 0" stroke="#000000" stroke-width="1" fill="none"></path></g><g stroke-linecap="round" transform="translate(14.577807950942088 144.5879771942582) rotate(0 2.5510026540845274 2.5510026540845274)"><path d="M5.1 2.55 C5.1 2.7, 5.09 2.85, 5.06 2.99 C5.04 3.14, 5 3.28, 4.95 3.42 C4.9 3.56, 4.83 3.7, 4.76 3.83 C4.69 3.95, 4.6 4.08, 4.51 4.19 C4.41 4.3, 4.3 4.41, 4.19 4.51 C4.08 4.6, 3.95 4.69, 3.83 4.76 C3.7 4.83, 3.56 4.9, 3.42 4.95 C3.28 5, 3.14 5.04, 2.99 5.06 C2.85 5.09, 2.7 5.1, 2.55 5.1 C2.4 5.1, 2.25 5.09, 2.11 5.06 C1.96 5.04, 1.82 5, 1.68 4.95 C1.54 4.9, 1.4 4.83, 1.28 4.76 C1.15 4.69, 1.02 4.6, 0.91 4.51 C0.8 4.41, 0.69 4.3, 0.6 4.19 C0.5 4.08, 0.42 3.95, 0.34 3.83 C0.27 3.7, 0.2 3.56, 0.15 3.42 C0.1 3.28, 0.06 3.14, 0.04 2.99 C0.01 2.85, 0 2.7, 0 2.55 C0 2.4, 0.01 2.25, 0.04 2.11 C0.06 1.96, 0.1 1.82, 0.15 1.68 C0.2 1.54, 0.27 1.4, 0.34 1.28 C0.42 1.15, 0.5 1.02, 0.6 0.91 C0.69 0.8, 0.8 0.69, 0.91 0.6 C1.02 0.5, 1.15 0.42, 1.28 0.34 C1.4 0.27, 1.54 0.2, 1.68 0.15 C1.82 0.1, 1.96 0.06, 2.11 0.04 C2.25 0.01, 2.4 0, 2.55 0 C2.7 0, 2.85 0.01, 2.99 0.04 C3.14 0.06, 3.28 0.1, 3.42 0.15 C3.56 0.2, 3.7 0.27, 3.83 0.34 C3.95 0.42, 4.08 0.5, 4.19 0.6 C4.3 0.69, 4.41 0.8, 4.51 0.91 C4.6 1.02, 4.69 1.15, 4.76 1.28 C4.83 1.4, 4.9 1.54, 4.95 1.68 C5 1.82, 5.04 1.96, 5.06 2.11 C5.09 2.25, 5.1 2.48, 5.1 2.55 C5.11 2.62, 5.11 2.48, 5.1 2.55" stroke="none" stroke-width="0" fill="#fa5252"></path><path d="M5.1 2.55 C5.1 2.7, 5.09 2.85, 5.06 2.99 C5.04 3.14, 5 3.28, 4.95 3.42 C4.9 3.56, 4.83 3.7, 4.76 3.83 C4.69 3.95, 4.6 4.08, 4.51 4.19 C4.41 4.3, 4.3 4.41, 4.19 4.51 C4.08 4.6, 3.95 4.69, 3.83 4.76 C3.7 4.83, 3.56 4.9, 3.42 4.95 C3.28 5, 3.14 5.04, 2.99 5.06 C2.85 5.09, 2.7 5.1, 2.55 5.1 C2.4 5.1, 2.25 5.09, 2.11 5.06 C1.96 5.04, 1.82 5, 1.68 4.95 C1.54 4.9, 1.4 4.83, 1.28 4.76 C1.15 4.69, 1.02 4.6, 0.91 4.51 C0.8 4.41, 0.69 4.3, 0.6 4.19 C0.5 4.08, 0.42 3.95, 0.34 3.83 C0.27 3.7, 0.2 3.56, 0.15 3.42 C0.1 3.28, 0.06 3.14, 0.04 2.99 C0.01 2.85, 0 2.7, 0 2.55 C0 2.4, 0.01 2.25, 0.04 2.11 C0.06 1.96, 0.1 1.82, 0.15 1.68 C0.2 1.54, 0.27 1.4, 0.34 1.28 C0.42 1.15, 0.5 1.02, 0.6 0.91 C0.69 0.8, 0.8 0.69, 0.91 0.6 C1.02 0.5, 1.15 0.42, 1.28 0.34 C1.4 0.27, 1.54 0.2, 1.68 0.15 C1.82 0.1, 1.96 0.06, 2.11 0.04 C2.25 0.01, 2.4 0, 2.55 0 C2.7 0, 2.85 0.01, 2.99 0.04 C3.14 0.06, 3.28 0.1, 3.42 0.15 C3.56 0.2, 3.7 0.27, 3.83 0.34 C3.95 0.42, 4.08 0.5, 4.19 0.6 C4.3 0.69, 4.41 0.8, 4.51 0.91 C4.6 1.02, 4.69 1.15, 4.76 1.28 C4.83 1.4, 4.9 1.54, 4.95 1.68 C5 1.82, 5.04 1.96, 5.06 2.11 C5.09 2.25, 5.1 2.48, 5.1 2.55 C5.11 2.62, 5.11 2.48, 5.1 2.55" stroke="#000000" stroke-width="1" fill="none"></path></g><g stroke-linecap="round" transform="translate(25.045784089870494 144.5879771942582) rotate(0 2.5510026540845274 2.5510026540845274)"><path d="M5.1 2.55 C5.1 2.7, 5.09 2.85, 5.06 2.99 C5.04 3.14, 5 3.28, 4.95 3.42 C4.9 3.56, 4.83 3.7, 4.76 3.83 C4.69 3.95, 4.6 4.08, 4.51 4.19 C4.41 4.3, 4.3 4.41, 4.19 4.51 C4.08 4.6, 3.95 4.69, 3.83 4.76 C3.7 4.83, 3.56 4.9, 3.42 4.95 C3.28 5, 3.14 5.04, 2.99 5.06 C2.85 5.09, 2.7 5.1, 2.55 5.1 C2.4 5.1, 2.25 5.09, 2.11 5.06 C1.96 5.04, 1.82 5, 1.68 4.95 C1.54 4.9, 1.4 4.83, 1.28 4.76 C1.15 4.69, 1.02 4.6, 0.91 4.51 C0.8 4.41, 0.69 4.3, 0.6 4.19 C0.5 4.08, 0.42 3.95, 0.34 3.83 C0.27 3.7, 0.2 3.56, 0.15 3.42 C0.1 3.28, 0.06 3.14, 0.04 2.99 C0.01 2.85, 0 2.7, 0 2.55 C0 2.4, 0.01 2.25, 0.04 2.11 C0.06 1.96, 0.1 1.82, 0.15 1.68 C0.2 1.54, 0.27 1.4, 0.34 1.28 C0.42 1.15, 0.5 1.02, 0.6 0.91 C0.69 0.8, 0.8 0.69, 0.91 0.6 C1.02 0.5, 1.15 0.42, 1.28 0.34 C1.4 0.27, 1.54 0.2, 1.68 0.15 C1.82 0.1, 1.96 0.06, 2.11 0.04 C2.25 0.01, 2.4 0, 2.55 0 C2.7 0, 2.85 0.01, 2.99 0.04 C3.14 0.06, 3.28 0.1, 3.42 0.15 C3.56 0.2, 3.7 0.27, 3.83 0.34 C3.95 0.42, 4.08 0.5, 4.19 0.6 C4.3 0.69, 4.41 0.8, 4.51 0.91 C4.6 1.02, 4.69 1.15, 4.76 1.28 C4.83 1.4, 4.9 1.54, 4.95 1.68 C5 1.82, 5.04 1.96, 5.06 2.11 C5.09 2.25, 5.1 2.48, 5.1 2.55 C5.11 2.62, 5.11 2.48, 5.1 2.55" stroke="none" stroke-width="0" fill="#fab005"></path><path d="M5.1 2.55 C5.1 2.7, 5.09 2.85, 5.06 2.99 C5.04 3.14, 5 3.28, 4.95 3.42 C4.9 3.56, 4.83 3.7, 4.76 3.83 C4.69 3.95, 4.6 4.08, 4.51 4.19 C4.41 4.3, 4.3 4.41, 4.19 4.51 C4.08 4.6, 3.95 4.69, 3.83 4.76 C3.7 4.83, 3.56 4.9, 3.42 4.95 C3.28 5, 3.14 5.04, 2.99 5.06 C2.85 5.09, 2.7 5.1, 2.55 5.1 C2.4 5.1, 2.25 5.09, 2.11 5.06 C1.96 5.04, 1.82 5, 1.68 4.95 C1.54 4.9, 1.4 4.83, 1.28 4.76 C1.15 4.69, 1.02 4.6, 0.91 4.51 C0.8 4.41, 0.69 4.3, 0.6 4.19 C0.5 4.08, 0.42 3.95, 0.34 3.83 C0.27 3.7, 0.2 3.56, 0.15 3.42 C0.1 3.28, 0.06 3.14, 0.04 2.99 C0.01 2.85, 0 2.7, 0 2.55 C0 2.4, 0.01 2.25, 0.04 2.11 C0.06 1.96, 0.1 1.82, 0.15 1.68 C0.2 1.54, 0.27 1.4, 0.34 1.28 C0.42 1.15, 0.5 1.02, 0.6 0.91 C0.69 0.8, 0.8 0.69, 0.91 0.6 C1.02 0.5, 1.15 0.42, 1.28 0.34 C1.4 0.27, 1.54 0.2, 1.68 0.15 C1.82 0.1, 1.96 0.06, 2.11 0.04 C2.25 0.01, 2.4 0, 2.55 0 C2.7 0, 2.85 0.01, 2.99 0.04 C3.14 0.06, 3.28 0.1, 3.42 0.15 C3.56 0.2, 3.7 0.27, 3.83 0.34 C3.95 0.42, 4.08 0.5, 4.19 0.6 C4.3 0.69, 4.41 0.8, 4.51 0.91 C4.6 1.02, 4.69 1.15, 4.76 1.28 C4.83 1.4, 4.9 1.54, 4.95 1.68 C5 1.82, 5.04 1.96, 5.06 2.11 C5.09 2.25, 5.1 2.48, 5.1 2.55 C5.11 2.62, 5.11 2.48, 5.1 2.55" stroke="#000000" stroke-width="1" fill="none"></path></g><g stroke-linecap="round" transform="translate(35.973496987993485 145.04771395346847) rotate(0 2.5510026540845274 2.5510026540845274)"><path d="M5.1 2.55 C5.1 2.7, 5.09 2.85, 5.06 2.99 C5.04 3.14, 5 3.28, 4.95 3.42 C4.9 3.56, 4.83 3.7, 4.76 3.83 C4.69 3.95, 4.6 4.08, 4.51 4.19 C4.41 4.3, 4.3 4.41, 4.19 4.51 C4.08 4.6, 3.95 4.69, 3.83 4.76 C3.7 4.83, 3.56 4.9, 3.42 4.95 C3.28 5, 3.14 5.04, 2.99 5.06 C2.85 5.09, 2.7 5.1, 2.55 5.1 C2.4 5.1, 2.25 5.09, 2.11 5.06 C1.96 5.04, 1.82 5, 1.68 4.95 C1.54 4.9, 1.4 4.83, 1.28 4.76 C1.15 4.69, 1.02 4.6, 0.91 4.51 C0.8 4.41, 0.69 4.3, 0.6 4.19 C0.5 4.08, 0.42 3.95, 0.34 3.83 C0.27 3.7, 0.2 3.56, 0.15 3.42 C0.1 3.28, 0.06 3.14, 0.04 2.99 C0.01 2.85, 0 2.7, 0 2.55 C0 2.4, 0.01 2.25, 0.04 2.11 C0.06 1.96, 0.1 1.82, 0.15 1.68 C0.2 1.54, 0.27 1.4, 0.34 1.28 C0.42 1.15, 0.5 1.02, 0.6 0.91 C0.69 0.8, 0.8 0.69, 0.91 0.6 C1.02 0.5, 1.15 0.42, 1.28 0.34 C1.4 0.27, 1.54 0.2, 1.68 0.15 C1.82 0.1, 1.96 0.06, 2.11 0.04 C2.25 0.01, 2.4 0, 2.55 0 C2.7 0, 2.85 0.01, 2.99 0.04 C3.14 0.06, 3.28 0.1, 3.42 0.15 C3.56 0.2, 3.7 0.27, 3.83 0.34 C3.95 0.42, 4.08 0.5, 4.19 0.6 C4.3 0.69, 4.41 0.8, 4.51 0.91 C4.6 1.02, 4.69 1.15, 4.76 1.28 C4.83 1.4, 4.9 1.54, 4.95 1.68 C5 1.82, 5.04 1.96, 5.06 2.11 C5.09 2.25, 5.1 2.48, 5.1 2.55 C5.11 2.62, 5.11 2.48, 5.1 2.55" stroke="none" stroke-width="0" fill="#40c057"></path><path d="M5.1 2.55 C5.1 2.7, 5.09 2.85, 5.06 2.99 C5.04 3.14, 5 3.28, 4.95 3.42 C4.9 3.56, 4.83 3.7, 4.76 3.83 C4.69 3.95, 4.6 4.08, 4.51 4.19 C4.41 4.3, 4.3 4.41, 4.19 4.51 C4.08 4.6, 3.95 4.69, 3.83 4.76 C3.7 4.83, 3.56 4.9, 3.42 4.95 C3.28 5, 3.14 5.04, 2.99 5.06 C2.85 5.09, 2.7 5.1, 2.55 5.1 C2.4 5.1, 2.25 5.09, 2.11 5.06 C1.96 5.04, 1.82 5, 1.68 4.95 C1.54 4.9, 1.4 4.83, 1.28 4.76 C1.15 4.69, 1.02 4.6, 0.91 4.51 C0.8 4.41, 0.69 4.3, 0.6 4.19 C0.5 4.08, 0.42 3.95, 0.34 3.83 C0.27 3.7, 0.2 3.56, 0.15 3.42 C0.1 3.28, 0.06 3.14, 0.04 2.99 C0.01 2.85, 0 2.7, 0 2.55 C0 2.4, 0.01 2.25, 0.04 2.11 C0.06 1.96, 0.1 1.82, 0.15 1.68 C0.2 1.54, 0.27 1.4, 0.34 1.28 C0.42 1.15, 0.5 1.02, 0.6 0.91 C0.69 0.8, 0.8 0.69, 0.91 0.6 C1.02 0.5, 1.15 0.42, 1.28 0.34 C1.4 0.27, 1.54 0.2, 1.68 0.15 C1.82 0.1, 1.96 0.06, 2.11 0.04 C2.25 0.01, 2.4 0, 2.55 0 C2.7 0, 2.85 0.01, 2.99 0.04 C3.14 0.06, 3.28 0.1, 3.42 0.15 C3.56 0.2, 3.7 0.27, 3.83 0.34 C3.95 0.42, 4.08 0.5, 4.19 0.6 C4.3 0.69, 4.41 0.8, 4.51 0.91 C4.6 1.02, 4.69 1.15, 4.76 1.28 C4.83 1.4, 4.9 1.54, 4.95 1.68 C5 1.82, 5.04 1.96, 5.06 2.11 C5.09 2.25, 5.1 2.48, 5.1 2.55 C5.11 2.62, 5.11 2.48, 5.1 2.55" stroke="#000000" stroke-width="1" fill="none"></path></g><g transform="translate(45.15183926425448 164.474414865595) rotate(0 5.4046478271484375 8.90641238023602)"><text x="0" y="0" font-family="Virgil, Segoe UI Emoji" font-size="13.70217289267076px" fill="#228be6" text-anchor="start" style="white-space: pre;" direction="ltr" dominant-baseline="text-before-edge">G</text></g><g transform="translate(58.16890351229222 164.474414865595) rotate(0 3.7948989868164062 8.90641238023602)"><text x="0" y="0" font-family="Virgil, Segoe UI Emoji" font-size="13.702172892670754px" fill="#d9480f" text-anchor="start" style="white-space: pre;" direction="ltr" dominant-baseline="text-before-edge">o</text></g><g transform="translate(68.44553318179555 164.474414865595) rotate(0 3.7948989868164062 8.90641238023602)"><text x="0" y="0" font-family="Virgil, Segoe UI Emoji" font-size="13.702172892670754px" fill="#fab005" text-anchor="start" style="white-space: pre;" direction="ltr" dominant-baseline="text-before-edge">o</text></g><g transform="translate(78.03705420666415 164.474414865595) rotate(0 3.4318466186523438 8.90641238023602)"><text x="0" y="0" font-family="Virgil, Segoe UI Emoji" font-size="13.702172892670756px" fill="#228be6" text-anchor="start" style="white-space: pre;" direction="ltr" dominant-baseline="text-before-edge">g</text></g><g transform="translate(86.25835794226646 164.474414865595) rotate(0 1.801544189453125 8.90641238023602)"><text x="0" y="0" font-family="Virgil, Segoe UI Emoji" font-size="13.702172892670756px" fill="#5c940d" text-anchor="start" style="white-space: pre;" direction="ltr" dominant-baseline="text-before-edge">l</text></g><g transform="translate(91.73922709933436 164.474414865595) rotate(0 3.7469482421875 8.90641238023602)"><text x="0" y="0" font-family="Virgil, Segoe UI Emoji" font-size="13.702172892670754px" fill="#d9480f" text-anchor="start" style="white-space: pre;" direction="ltr" dominant-baseline="text-before-edge">e</text></g><g stroke-linecap="round" transform="translate(32.058651833481235 185.9639893522667) rotate(0 41.943873688119766 6.1812024382492154)"><path d="M3.09 0 C31.57 -0.04, 59.01 0.23, 80.8 0 M3.09 0 C24.57 -0.02, 46.49 0.13, 80.8 0 M80.8 0 C82.88 -0.38, 83.69 1.51, 83.89 3.09 M80.8 0 C82.1 0, 84.71 1.76, 83.89 3.09 M83.89 3.09 C83.82 5.31, 84.09 7.94, 83.89 9.27 M83.89 3.09 C83.83 4.95, 83.91 6.71, 83.89 9.27 M83.89 9.27 C83.47 10.66, 83.23 13.06, 80.8 12.36 M83.89 9.27 C83.99 11.65, 82.86 12.71, 80.8 12.36 M80.8 12.36 C59.34 12.5, 36.72 12.56, 3.09 12.36 M80.8 12.36 C56.21 12.64, 31.9 12.71, 3.09 12.36 M3.09 12.36 C1.06 12.65, 0.49 11.03, 0 9.27 M3.09 12.36 C1.25 11.66, 0.91 10.37, 0 9.27 M0 9.27 C-0.25 7.58, 0.29 5.37, 0 3.09 M0 9.27 C0.02 7.07, 0.05 5.04, 0 3.09 M0 3.09 C-0.22 1.38, 1.57 0.6, 3.09 0 M0 3.09 C-1.08 0.61, 1.69 0.76, 3.09 0" stroke="#000000" stroke-width="1" fill="none"></path></g><g stroke-linecap="round" transform="translate(105.7915666325955 189.05459057139115) rotate(0 2.4494459737657053 2.1056640827108595)"><path d="M2.84 -0.12 C3.38 -0.15, 3.93 0.31, 4.31 0.65 C4.69 0.99, 5.11 1.5, 5.12 1.93 C5.12 2.36, 4.64 2.91, 4.33 3.25 C4.02 3.58, 3.73 3.75, 3.25 3.92 C2.76 4.09, 1.88 4.36, 1.42 4.25 C0.95 4.15, 0.61 3.72, 0.44 3.28 C0.27 2.84, 0.3 2.14, 0.39 1.63 C0.47 1.12, 0.53 0.46, 0.94 0.21 C1.36 -0.04, 2.58 0.14, 2.88 0.11 C3.18 0.07, 2.77 0.01, 2.73 0 M2.2 -0.33 C2.71 -0.24, 3.73 0.45, 4.18 0.82 C4.63 1.18, 4.83 1.43, 4.9 1.84 C4.97 2.25, 4.87 2.86, 4.6 3.27 C4.32 3.69, 3.7 4.15, 3.23 4.31 C2.77 4.48, 2.28 4.5, 1.8 4.28 C1.32 4.05, 0.65 3.38, 0.37 2.97 C0.08 2.57, -0.06 2.19, 0.07 1.86 C0.21 1.53, 0.81 1.32, 1.19 1 C1.57 0.67, 2.14 0.07, 2.37 -0.09 C2.61 -0.25, 2.61 -0.05, 2.62 0.02" stroke="#000000" stroke-width="1" fill="none"></path></g><g stroke-linecap="round"><g transform="translate(110.58392489985249 193.22845153637354) rotate(0 1.2462093550738018 1.589991246128534)"><path d="M0.39 -0.16 C0.89 0.54, 2.9 2.99, 3.2 3.6 M-0.32 -0.9 C0.13 -0.37, 2.66 1.97, 2.98 2.48" stroke="#000000" stroke-width="1" fill="none"></path></g></g><mask></mask><g stroke-linecap="round" transform="translate(42.81754515175362 309.2365316259752) rotate(0 30.77171186165424 47.06122322696103)"><path d="M0 0 C0 0, 0 0, 0 0 M0 0 C0 0, 0 0, 0 0 M0.13 12.04 C4 7.59, 7.87 3.14, 10.63 -0.03 M0.13 12.04 C2.57 9.24, 5.01 6.43, 10.63 -0.03 M0.27 24.08 C4.58 19.12, 8.89 14.17, 21.26 -0.07 M0.27 24.08 C6.56 16.84, 12.86 9.59, 21.26 -0.07 M-0.26 36.88 C7.17 28.33, 14.6 19.78, 31.89 -0.1 M-0.26 36.88 C12.5 22.2, 25.26 7.53, 31.89 -0.1 M-0.12 48.92 C12.44 34.46, 25.01 20.01, 42.52 -0.14 M-0.12 48.92 C15.15 31.35, 30.42 13.78, 42.52 -0.14 M0.01 60.96 C16.28 42.24, 32.55 23.52, 53.15 -0.17 M0.01 60.96 C11.88 47.31, 23.74 33.66, 53.15 -0.17 M0.14 73 C15.95 54.82, 31.75 36.64, 61.81 2.06 M0.14 73 C19.7 50.5, 39.26 28, 61.81 2.06 M0.28 85.04 C14.73 68.41, 29.19 51.78, 61.95 14.1 M0.28 85.04 C20.69 61.55, 41.11 38.06, 61.95 14.1 M3.03 94.06 C17.68 77.22, 32.32 60.37, 62.08 26.14 M3.03 94.06 C15.1 80.19, 27.16 66.31, 62.08 26.14 M13.66 94.03 C25.36 80.57, 37.06 67.12, 62.21 38.18 M13.66 94.03 C23.62 82.57, 33.59 71.11, 62.21 38.18 M24.29 93.99 C35.97 80.56, 47.65 67.13, 61.69 50.98 M24.29 93.99 C32.24 84.86, 40.18 75.72, 61.69 50.98 M34.92 93.96 C43.94 83.59, 52.96 73.21, 61.82 63.02 M34.92 93.96 C45.58 81.7, 56.24 69.44, 61.82 63.02 M45.55 93.92 C51.72 86.84, 57.88 79.75, 61.96 75.06 M45.55 93.92 C50.47 88.27, 55.39 82.61, 61.96 75.06 M55.53 94.64 C57.57 92.3, 59.61 89.95, 62.09 87.1 M55.53 94.64 C57.63 92.23, 59.73 89.81, 62.09 87.1 M0.19 94.29 C0.19 94.29, 0.19 94.29, 0.19 94.29 M0.19 94.29 C0.19 94.29, 0.19 94.29, 0.19 94.29 M12.23 94.15 C8.04 90.51, 3.85 86.87, 0.15 83.66 M12.23 94.15 C9.09 91.43, 5.96 88.7, 0.15 83.66 M24.27 94.02 C18.74 89.21, 13.21 84.41, 0.12 73.03 M24.27 94.02 C15.22 86.15, 6.17 78.29, 0.12 73.03 M36.31 93.89 C28.86 87.41, 21.41 80.93, 0.09 62.4 M36.31 93.89 C23.21 82.5, 10.1 71.1, 0.09 62.4 M49.11 94.41 C34.69 81.87, 20.27 69.34, 0.05 51.77 M49.11 94.41 C34.03 81.31, 18.96 68.21, 0.05 51.77 M61.15 94.28 C46.85 81.85, 32.55 69.41, 0.02 41.14 M61.15 94.28 C46.51 81.56, 31.88 68.83, 0.02 41.14 M61.87 84.3 C42.76 67.69, 23.65 51.08, -0.02 30.51 M61.87 84.3 C48.92 73.05, 35.98 61.8, -0.02 30.51 M61.83 73.67 C39.36 54.13, 16.88 34.6, -0.05 19.88 M61.83 73.67 C38.84 53.68, 15.84 33.69, -0.05 19.88 M61.8 63.04 C48.06 51.1, 34.32 39.16, -0.09 9.25 M61.8 63.04 C45.27 48.68, 28.75 34.31, -0.09 9.25 M61.76 52.41 C42.86 35.98, 23.96 19.55, 0.63 -0.73 M61.76 52.41 C43.27 36.33, 24.77 20.25, 0.63 -0.73 M61.73 41.78 C48.65 30.42, 35.58 19.05, 12.67 -0.86 M61.73 41.78 C50.29 31.84, 38.86 21.9, 12.67 -0.86 M61.7 31.15 C47.93 19.19, 34.16 7.22, 24.71 -0.99 M61.7 31.15 C52.73 23.35, 43.76 15.56, 24.71 -0.99 M61.66 20.52 C52.97 12.97, 44.28 5.42, 37.51 -0.47 M61.66 20.52 C56.22 15.79, 50.78 11.07, 37.51 -0.47 M61.63 9.89 C58.77 7.41, 55.91 4.92, 49.55 -0.6 M61.63 9.89 C58.4 7.09, 55.18 4.29, 49.55 -0.6" stroke="#868e96" stroke-width="1" fill="none"></path><path d="M0 0 C15.78 0, 31.56 0, 61.54 0 M0 0 C21.14 0, 42.27 0, 61.54 0 M61.54 0 C61.54 22.48, 61.54 44.97, 61.54 94.12 M61.54 0 C61.54 31.96, 61.54 63.91, 61.54 94.12 M61.54 94.12 C47.19 94.12, 32.84 94.12, 0 94.12 M61.54 94.12 C48.88 94.12, 36.21 94.12, 0 94.12 M0 94.12 C0 69.49, 0 44.86, 0 0 M0 94.12 C0 58.74, 0 23.36, 0 0" stroke="#000000" stroke-width="2" fill="none"></path></g><g stroke-linecap="round" transform="translate(49.86359061288317 316.41248113389975) rotate(0 24.24715620375457 35.99314862475012)"><path d="M0 0 L48.49 0 L48.49 71.99 L0 71.99" stroke="none" stroke-width="0" fill="#fff"></path><path d="M0 0 C15.32 0, 30.65 0, 48.49 0 M0 0 C14.69 0, 29.38 0, 48.49 0 M48.49 0 C48.49 15.58, 48.49 31.16, 48.49 71.99 M48.49 0 C48.49 14.98, 48.49 29.96, 48.49 71.99 M48.49 71.99 C35.27 71.99, 22.04 71.99, 0 71.99 M48.49 71.99 C31.15 71.99, 13.8 71.99, 0 71.99 M0 71.99 C0 57.32, 0 42.66, 0 0 M0 71.99 C0 50.5, 0 29.02, 0 0" stroke="#000000" stroke-width="2" fill="none"></path></g><g stroke-linecap="round" transform="translate(69.14503972024954 391.4794884328703) rotate(0 4.9657070963875185 4.9657070963875185)"><path d="M9.93 4.97 C9.93 5.25, 9.91 5.54, 9.86 5.83 C9.81 6.11, 9.73 6.39, 9.63 6.66 C9.53 6.93, 9.41 7.2, 9.27 7.45 C9.12 7.7, 8.95 7.94, 8.77 8.16 C8.58 8.38, 8.38 8.58, 8.16 8.77 C7.94 8.95, 7.7 9.12, 7.45 9.27 C7.2 9.41, 6.93 9.53, 6.66 9.63 C6.39 9.73, 6.11 9.81, 5.83 9.86 C5.54 9.91, 5.25 9.93, 4.97 9.93 C4.68 9.93, 4.39 9.91, 4.1 9.86 C3.82 9.81, 3.54 9.73, 3.27 9.63 C3 9.53, 2.73 9.41, 2.48 9.27 C2.23 9.12, 1.99 8.95, 1.77 8.77 C1.55 8.58, 1.35 8.38, 1.16 8.16 C0.98 7.94, 0.81 7.7, 0.67 7.45 C0.52 7.2, 0.4 6.93, 0.3 6.66 C0.2 6.39, 0.13 6.11, 0.08 5.83 C0.03 5.54, 0 5.25, 0 4.97 C0 4.68, 0.03 4.39, 0.08 4.1 C0.13 3.82, 0.2 3.54, 0.3 3.27 C0.4 3, 0.52 2.73, 0.67 2.48 C0.81 2.23, 0.98 1.99, 1.16 1.77 C1.35 1.55, 1.55 1.35, 1.77 1.16 C1.99 0.98, 2.23 0.81, 2.48 0.67 C2.73 0.52, 3 0.4, 3.27 0.3 C3.54 0.2, 3.82 0.13, 4.1 0.08 C4.39 0.03, 4.68 0, 4.97 0 C5.25 0, 5.54 0.03, 5.83 0.08 C6.11 0.13, 6.39 0.2, 6.66 0.3 C6.93 0.4, 7.2 0.52, 7.45 0.67 C7.7 0.81, 7.94 0.98, 8.16 1.16 C8.38 1.35, 8.58 1.55, 8.77 1.77 C8.95 1.99, 9.12 2.23, 9.27 2.48 C9.41 2.73, 9.53 3, 9.63 3.27 C9.73 3.54, 9.81 3.82, 9.86 4.1 C9.91 4.39, 9.92 4.82, 9.93 4.97 C9.94 5.11, 9.94 4.82, 9.93 4.97" stroke="none" stroke-width="0" fill="#fff"></path><path d="M9.93 4.97 C9.93 5.25, 9.91 5.54, 9.86 5.83 C9.81 6.11, 9.73 6.39, 9.63 6.66 C9.53 6.93, 9.41 7.2, 9.27 7.45 C9.12 7.7, 8.95 7.94, 8.77 8.16 C8.58 8.38, 8.38 8.58, 8.16 8.77 C7.94 8.95, 7.7 9.12, 7.45 9.27 C7.2 9.41, 6.93 9.53, 6.66 9.63 C6.39 9.73, 6.11 9.81, 5.83 9.86 C5.54 9.91, 5.25 9.93, 4.97 9.93 C4.68 9.93, 4.39 9.91, 4.1 9.86 C3.82 9.81, 3.54 9.73, 3.27 9.63 C3 9.53, 2.73 9.41, 2.48 9.27 C2.23 9.12, 1.99 8.95, 1.77 8.77 C1.55 8.58, 1.35 8.38, 1.16 8.16 C0.98 7.94, 0.81 7.7, 0.67 7.45 C0.52 7.2, 0.4 6.93, 0.3 6.66 C0.2 6.39, 0.13 6.11, 0.08 5.83 C0.03 5.54, 0 5.25, 0 4.97 C0 4.68, 0.03 4.39, 0.08 4.1 C0.13 3.82, 0.2 3.54, 0.3 3.27 C0.4 3, 0.52 2.73, 0.67 2.48 C0.81 2.23, 0.98 1.99, 1.16 1.77 C1.35 1.55, 1.55 1.35, 1.77 1.16 C1.99 0.98, 2.23 0.81, 2.48 0.67 C2.73 0.52, 3 0.4, 3.27 0.3 C3.54 0.2, 3.82 0.13, 4.1 0.08 C4.39 0.03, 4.68 0, 4.97 0 C5.25 0, 5.54 0.03, 5.83 0.08 C6.11 0.13, 6.39 0.2, 6.66 0.3 C6.93 0.4, 7.2 0.52, 7.45 0.67 C7.7 0.81, 7.94 0.98, 8.16 1.16 C8.38 1.35, 8.58 1.55, 8.77 1.77 C8.95 1.99, 9.12 2.23, 9.27 2.48 C9.41 2.73, 9.53 3, 9.63 3.27 C9.73 3.54, 9.81 3.82, 9.86 4.1 C9.91 4.39, 9.92 4.82, 9.93 4.97 C9.94 5.11, 9.94 4.82, 9.93 4.97" stroke="#000000" stroke-width="2" fill="none"></path></g><g stroke-linecap="round" transform="translate(57.059101735885406 325.5759393045246) rotate(0 17.051645080751655 8.642523279098214)"><path d="M0 0 C0 0, 0 0, 0 0 M0 0 C0 0, 0 0, 0 0 M0.13 12.04 C2.54 9.27, 4.95 6.5, 10.63 -0.03 M0.13 12.04 C3.86 7.75, 7.59 3.46, 10.63 -0.03 M5.51 18.04 C11.54 11.11, 17.57 4.18, 21.26 -0.07 M5.51 18.04 C9.5 13.46, 13.48 8.88, 21.26 -0.07 M16.14 18.01 C20.6 12.88, 25.06 7.75, 31.89 -0.1 M16.14 18.01 C21.88 11.42, 27.61 4.82, 31.89 -0.1 M26.77 17.98 C28.89 15.54, 31.01 13.11, 33.99 9.67 M26.77 17.98 C28.49 16, 30.21 14.02, 33.99 9.67 M-0.26 17.06 C-0.26 17.06, -0.26 17.06, -0.26 17.06 M-0.26 17.06 C-0.26 17.06, -0.26 17.06, -0.26 17.06 M12.54 17.58 C8.85 14.38, 5.16 11.17, -0.29 6.43 M12.54 17.58 C9.89 15.28, 7.24 12.98, -0.29 6.43 M24.58 17.45 C19.33 12.89, 14.08 8.33, 3.45 -0.92 M24.58 17.45 C16.61 10.53, 8.65 3.6, 3.45 -0.92 M34.36 15.35 C28.75 10.48, 23.14 5.6, 16.24 -0.39 M34.36 15.35 C30.28 11.81, 26.21 8.27, 16.24 -0.39 M34.32 4.72 C31.92 2.63, 29.52 0.55, 28.28 -0.53 M34.32 4.72 C32.13 2.81, 29.93 0.9, 28.28 -0.53" stroke="#4c6ef588" stroke-width="1" fill="none"></path><path d="M0 0 C9.6 0, 19.2 0, 34.1 0 M0 0 C10.89 0, 21.78 0, 34.1 0 M34.1 0 C34.1 3.76, 34.1 7.51, 34.1 17.29 M34.1 0 C34.1 5.51, 34.1 11.03, 34.1 17.29 M34.1 17.29 C21.83 17.29, 9.56 17.29, 0 17.29 M34.1 17.29 C24.02 17.29, 13.94 17.29, 0 17.29 M0 17.29 C0 10.78, 0 4.27, 0 0 M0 17.29 C0 10.96, 0 4.63, 0 0" stroke="#000000" stroke-width="2" fill="none"></path></g><g stroke-linecap="round" transform="translate(57.059101735885406 356.4776089990155) rotate(0 17.051645080751655 8.642523279098214)"><path d="M0 0 C0 0, 0 0, 0 0 M0 0 C0 0, 0 0, 0 0 M0.13 12.04 C2.42 9.41, 4.71 6.78, 10.63 -0.03 M0.13 12.04 C3.22 8.49, 6.3 4.95, 10.63 -0.03 M5.51 18.04 C8.91 14.14, 12.3 10.23, 21.26 -0.07 M5.51 18.04 C10.05 12.83, 14.59 7.61, 21.26 -0.07 M16.14 18.01 C20.94 12.49, 25.74 6.97, 31.89 -0.1 M16.14 18.01 C21.87 11.43, 27.59 4.84, 31.89 -0.1 M26.77 17.98 C28.63 15.84, 30.48 13.71, 33.99 9.67 M26.77 17.98 C28.72 15.73, 30.67 13.49, 33.99 9.67 M-0.26 17.06 C-0.26 17.06, -0.26 17.06, -0.26 17.06 M-0.26 17.06 C-0.26 17.06, -0.26 17.06, -0.26 17.06 M12.54 17.58 C7.59 13.28, 2.63 8.97, -0.29 6.43 M12.54 17.58 C9.28 14.75, 6.02 11.92, -0.29 6.43 M24.58 17.45 C17.95 11.68, 11.31 5.92, 3.45 -0.92 M24.58 17.45 C17.14 10.98, 9.7 4.52, 3.45 -0.92 M34.36 15.35 C29.95 11.52, 25.55 7.7, 16.24 -0.39 M34.36 15.35 C29.18 10.85, 24.01 6.35, 16.24 -0.39 M34.32 4.72 C32.72 3.33, 31.12 1.94, 28.28 -0.53 M34.32 4.72 C33.04 3.6, 31.75 2.49, 28.28 -0.53" stroke="#4c6ef588" stroke-width="1" fill="none"></path><path d="M0 0 C10.09 0, 20.17 0, 34.1 0 M0 0 C12.93 0, 25.87 0, 34.1 0 M34.1 0 C34.1 6.77, 34.1 13.54, 34.1 17.29 M34.1 0 C34.1 5.89, 34.1 11.77, 34.1 17.29 M34.1 17.29 C25.12 17.29, 16.14 17.29, 0 17.29 M34.1 17.29 C21.33 17.29, 8.55 17.29, 0 17.29 M0 17.29 C0 13.29, 0 9.29, 0 0 M0 17.29 C0 12.88, 0 8.47, 0 0" stroke="#000000" stroke-width="2" fill="none"></path></g><g transform="translate(30.404221066604578 414.72675386223773) rotate(0 42.732154846191406 17.13691902650919)"><text x="0" y="0" font-family="Virgil, Segoe UI Emoji" font-size="27.419070442414785px" fill="#000000" text-anchor="start" style="white-space: pre;" direction="ltr" dominant-baseline="text-before-edge">Device</text></g><g stroke-linecap="round" transform="translate(407.29165140605596 285.61986269916815) rotate(0 38.98890997799094 13.911535954588317)"><path d="M6.96 0 C29.32 3.71, 45.71 1.13, 71.02 0 C79.13 3.07, 75.02 3.59, 77.98 6.96 C78.18 12.98, 76.75 12.45, 77.98 20.87 C76.71 23.11, 77.94 30.56, 71.02 27.82 C46.29 29.8, 25.48 27.43, 6.96 27.82 C5.52 27.77, -0.21 26.53, 0 20.87 C1.13 15.87, -2.25 13.93, 0 6.96 C2.83 3.75, -1.09 -1.14, 6.96 0" stroke="none" stroke-width="0" fill="#ced4da"></path><path d="M6.96 0 C23.76 -2.03, 40.72 -0.44, 71.02 0 M6.96 0 C26.17 -0.6, 47.08 -0.03, 71.02 0 M71.02 0 C76.04 0.1, 78.5 0.51, 77.98 6.96 M71.02 0 C77.19 -0.29, 79.55 4.28, 77.98 6.96 M77.98 6.96 C77.41 10.77, 77.19 14.3, 77.98 20.87 M77.98 6.96 C78.77 10.99, 78.07 15.59, 77.98 20.87 M77.98 20.87 C77.19 27.37, 74 28.17, 71.02 27.82 M77.98 20.87 C78.09 23.88, 76.63 27.45, 71.02 27.82 M71.02 27.82 C53.83 29.22, 34.84 29.2, 6.96 27.82 M71.02 27.82 C54.58 28.27, 35.92 27.35, 6.96 27.82 M6.96 27.82 C1.98 28.63, 0.8 25.5, 0 20.87 M6.96 27.82 C4.58 29.1, -0.38 26.69, 0 20.87 M0 20.87 C-1.23 16.69, 0.17 11.58, 0 6.96 M0 20.87 C0.27 17.16, 0.16 13.08, 0 6.96 M0 6.96 C-0.7 0.53, 4.11 -1.46, 6.96 0 M0 6.96 C-0.86 3.17, 0.85 -1.06, 6.96 0" stroke="#000000" stroke-width="1" fill="none"></path></g><g stroke-linecap="round" transform="translate(428.89114144080963 254.1358602756277) rotate(0 26.358699703430602 25.44346707483919)"><path d="M39.34 3.27 C43.99 5.33, 48.17 10.17, 50.02 15.23 C51.87 20.29, 52.05 28.36, 50.43 33.64 C48.81 38.91, 44.93 44, 40.29 46.88 C35.64 49.76, 28.05 51.57, 22.57 50.9 C17.1 50.22, 11.1 46.9, 7.44 42.84 C3.79 38.78, 0.82 32.11, 0.64 26.53 C0.46 20.95, 3.12 13.54, 6.36 9.36 C9.6 5.17, 14.2 2.18, 20.08 1.43 C25.96 0.68, 37.4 3.82, 41.64 4.86 C45.87 5.9, 45.71 7.23, 45.49 7.67 M30.7 -0.84 C36.22 -0.46, 41.89 5.46, 45.76 9.38 C49.63 13.3, 53.56 17.56, 53.95 22.66 C54.33 27.77, 51.43 35.39, 48.07 40 C44.72 44.62, 39.39 48.73, 33.81 50.34 C28.23 51.94, 20 52.28, 14.58 49.64 C9.17 47, 3.66 39.92, 1.32 34.51 C-1.02 29.11, -1.35 22.07, 0.56 17.22 C2.47 12.36, 7.84 7.97, 12.77 5.36 C17.69 2.76, 27.3 2.54, 30.12 1.6 C32.95 0.67, 29.78 -0.39, 29.71 -0.25" stroke="none" stroke-width="0" fill="#ced4da"></path><path d="M26.75 -0.65 C32 -0.73, 38.73 2.89, 43 6.6 C47.27 10.31, 51.34 16.24, 52.34 21.6 C53.35 26.96, 52.07 34.01, 49.03 38.76 C45.99 43.52, 39.45 48.29, 34.09 50.15 C28.72 52, 21.82 52.03, 16.84 49.9 C11.85 47.77, 6.83 42.4, 4.18 37.36 C1.54 32.31, 0.12 24.89, 0.97 19.65 C1.81 14.41, 4.48 9.1, 9.27 5.91 C14.06 2.72, 25.58 1.11, 29.7 0.51 C33.81 -0.09, 33.94 1.75, 33.96 2.3 M15.11 3.57 C19.68 1.44, 26.91 0.16, 32.44 1.27 C37.98 2.37, 44.87 5.77, 48.32 10.21 C51.78 14.66, 53.83 22.14, 53.2 27.93 C52.57 33.72, 48.6 40.94, 44.53 44.96 C40.46 48.99, 34.25 51.71, 28.77 52.07 C23.29 52.43, 16.18 50.62, 11.65 47.12 C7.12 43.62, 2.87 36.69, 1.59 31.07 C0.31 25.45, 1.41 18.01, 3.96 13.39 C6.51 8.78, 15.05 5.2, 16.89 3.38 C18.72 1.56, 15.03 2.18, 14.97 2.47" stroke="#000000" stroke-width="1" fill="none"></path></g><g stroke-linecap="round" transform="translate(394.4783946057753 277.19972251612967) rotate(0 18.304652571826864 17.755512994672017)"><path d="M17.14 -0.37 C20.73 -0.75, 25.82 1.44, 29 3.81 C32.17 6.18, 35.29 10.14, 36.2 13.86 C37.12 17.57, 36.27 22.7, 34.51 26.13 C32.75 29.55, 29.21 32.94, 25.64 34.39 C22.07 35.84, 16.82 36.04, 13.08 34.82 C9.34 33.6, 5.43 30.25, 3.2 27.09 C0.98 23.92, -0.69 19.62, -0.29 15.85 C0.11 12.07, 2.38 7.15, 5.6 4.45 C8.83 1.76, 16.66 0.34, 19.04 -0.31 C21.42 -0.96, 19.91 0.24, 19.89 0.55 M20.7 0.86 C24.42 1.06, 29.66 2.43, 32.35 5.05 C35.04 7.67, 36.65 12.65, 36.85 16.57 C37.05 20.48, 35.97 25.34, 33.56 28.54 C31.15 31.74, 26.39 35.03, 22.39 35.78 C18.38 36.53, 13.07 34.96, 9.53 33.03 C6 31.09, 2.55 27.49, 1.18 24.17 C-0.2 20.85, 0.02 16.54, 1.28 13.11 C2.55 9.67, 5.5 5.81, 8.75 3.57 C12 1.33, 18.76 0.21, 20.78 -0.32 C22.8 -0.85, 20.96 -0.09, 20.86 0.39" stroke="none" stroke-width="0" fill="#ced4da"></path><path d="M15.24 0.4 C18.89 -0.3, 24.39 0.72, 27.8 2.68 C31.21 4.65, 34.49 8.56, 35.67 12.2 C36.85 15.84, 36.34 20.97, 34.9 24.54 C33.46 28.12, 30.32 31.95, 27.02 33.68 C23.73 35.41, 18.93 35.82, 15.14 34.93 C11.34 34.04, 6.82 31.27, 4.26 28.35 C1.7 25.44, -0.22 21.15, -0.22 17.45 C-0.22 13.75, 1.47 8.97, 4.25 6.14 C7.03 3.32, 14.33 1.37, 16.46 0.5 C18.59 -0.38, 17.1 0.66, 17.03 0.89 M13.77 0.54 C17.42 -0.66, 23.21 -0.22, 26.84 1.5 C30.47 3.23, 34.08 7.18, 35.55 10.89 C37.03 14.59, 36.89 19.98, 35.7 23.73 C34.51 27.48, 31.65 31.35, 28.42 33.38 C25.18 35.41, 20.15 36.57, 16.28 35.92 C12.41 35.27, 7.79 32.46, 5.18 29.48 C2.58 26.5, 0.77 21.72, 0.64 18.06 C0.52 14.4, 2.2 10.46, 4.41 7.51 C6.62 4.55, 12.27 1.4, 13.92 0.32 C15.58 -0.75, 14.15 0.76, 14.35 1.06" stroke="#000000" stroke-width="1" fill="none"></path></g><g stroke-linecap="round" transform="translate(414.2474193833457 262.922093510105) rotate(0 12.5654399654602 11.295378687014932)"><path d="M12.84 0.14 C15.48 0.18, 19.2 1.34, 21.23 3 C23.26 4.67, 24.68 7.69, 25.04 10.15 C25.4 12.61, 24.85 15.73, 23.41 17.75 C21.98 19.77, 19.04 21.65, 16.45 22.27 C13.87 22.89, 10.51 22.39, 7.92 21.48 C5.32 20.57, 2.2 18.96, 0.88 16.79 C-0.45 14.62, -0.75 10.96, -0.02 8.48 C0.71 6, 2.99 3.28, 5.27 1.9 C7.56 0.51, 12.14 0.46, 13.69 0.17 C15.24 -0.12, 14.53 -0.09, 14.58 0.16 M11.12 -0.46 C13.63 -1.15, 16.87 -0.07, 19.2 1.27 C21.52 2.61, 24.2 5.14, 25.06 7.59 C25.91 10.04, 25.46 13.79, 24.34 15.95 C23.21 18.12, 20.72 19.59, 18.33 20.59 C15.95 21.58, 12.52 22.16, 10.03 21.91 C7.53 21.65, 4.96 20.72, 3.35 19.06 C1.75 17.4, 0.41 14.52, 0.39 11.93 C0.36 9.34, 1.47 5.49, 3.21 3.51 C4.95 1.53, 9.63 0.47, 10.82 0.06 C12.01 -0.35, 10.39 0.85, 10.37 1.05" stroke="none" stroke-width="0" fill="#ced4da"></path><path d="M10.51 0.24 C13.06 -0.28, 16.76 0.44, 19 1.71 C21.24 2.99, 23.09 5.57, 23.97 7.89 C24.85 10.21, 25.06 13.46, 24.26 15.63 C23.45 17.8, 21.44 19.86, 19.15 20.91 C16.85 21.95, 13.24 22.29, 10.48 21.9 C7.73 21.51, 4.42 20.33, 2.62 18.56 C0.82 16.79, -0.4 13.65, -0.31 11.27 C-0.21 8.9, 1.33 6.1, 3.19 4.32 C5.05 2.54, 9.57 1.27, 10.86 0.59 C12.14 -0.09, 10.95 0.2, 10.91 0.27 M15.51 -0.22 C18.19 0.12, 21.37 2.3, 22.96 4.43 C24.56 6.56, 25.22 10, 25.07 12.54 C24.91 15.08, 23.8 17.92, 22.02 19.67 C20.25 21.43, 17.1 22.94, 14.44 23.08 C11.78 23.22, 8.28 21.99, 6.07 20.5 C3.85 19, 1.9 16.29, 1.16 14.11 C0.41 11.93, 0.74 9.59, 1.62 7.42 C2.51 5.26, 4.17 2.25, 6.46 1.11 C8.74 -0.02, 13.8 0.71, 15.34 0.61 C16.88 0.51, 15.61 0.32, 15.71 0.52" stroke="#000000" stroke-width="1" fill="none"></path></g><g stroke-linecap="round" transform="translate(464.0360743787189 284.1554904934235) rotate(0 15.558954686052857 14.643722057461446)"><path d="M12.61 0.17 C15.76 -0.58, 20.12 0.4, 23.09 1.97 C26.07 3.55, 29.2 6.68, 30.45 9.62 C31.7 12.55, 31.67 16.65, 30.59 19.56 C29.5 22.46, 26.92 25.35, 23.93 27.02 C20.95 28.69, 16.09 30.05, 12.68 29.56 C9.27 29.06, 5.53 26.56, 3.45 24.06 C1.37 21.57, 0.22 17.67, 0.19 14.58 C0.15 11.49, 1.09 7.96, 3.24 5.53 C5.38 3.11, 11.32 0.78, 13.04 0.01 C14.76 -0.76, 13.59 0.61, 13.56 0.9 M19.54 0.14 C22.67 0.78, 26.85 3.38, 28.77 6.08 C30.69 8.78, 31.48 13.31, 31.08 16.34 C30.67 19.36, 28.7 22.19, 26.35 24.25 C24 26.31, 20.13 28.18, 16.97 28.7 C13.8 29.23, 10.03 28.92, 7.37 27.38 C4.71 25.83, 1.98 22.63, 1 19.44 C0.03 16.26, 0.2 11.28, 1.54 8.27 C2.88 5.26, 6.11 2.6, 9.04 1.4 C11.97 0.2, 17.44 1.21, 19.13 1.09 C20.82 0.97, 19.19 0.56, 19.19 0.66" stroke="none" stroke-width="0" fill="#ced4da"></path><path d="M17.11 0.2 C20.21 0.35, 23.91 2.46, 26.23 4.73 C28.54 7.01, 30.61 10.84, 31.01 13.87 C31.41 16.9, 30.52 20.53, 28.63 22.94 C26.74 25.35, 23.01 27.5, 19.67 28.33 C16.33 29.17, 11.7 29.21, 8.6 27.95 C5.5 26.7, 2.39 23.61, 1.08 20.8 C-0.23 17.99, -0.21 14.05, 0.73 11.09 C1.67 8.13, 4 4.88, 6.71 3.05 C9.43 1.22, 15.25 0.56, 17.02 0.09 C18.78 -0.38, 17.19 0.07, 17.31 0.24 M16.55 -0.11 C19.71 0.02, 23.57 2.19, 26.03 4.43 C28.48 6.67, 30.79 10.24, 31.31 13.35 C31.82 16.46, 30.88 20.57, 29.1 23.08 C27.33 25.58, 23.8 27.6, 20.65 28.38 C17.51 29.16, 13.29 28.81, 10.24 27.75 C7.19 26.69, 4.08 24.74, 2.35 22.01 C0.63 19.28, -0.71 14.51, -0.1 11.39 C0.5 8.28, 3.18 5.23, 5.96 3.33 C8.73 1.43, 14.7 0.45, 16.54 0.01 C18.37 -0.42, 17.04 0.42, 16.96 0.72" stroke="#000000" stroke-width="1" fill="none"></path></g><g stroke-linecap="round" transform="translate(399.1334127577818 281.69932540090576) rotate(0 16.121463098201502 15.689638193785413)"><path d="M17.08 0.16 C20.42 0.21, 25.01 2.2, 27.58 4.52 C30.14 6.83, 32.06 10.77, 32.45 14.04 C32.85 17.32, 31.96 21.31, 29.93 24.16 C27.9 27.02, 23.7 30.22, 20.27 31.18 C16.84 32.13, 12.41 31.36, 9.34 29.9 C6.28 28.43, 3.41 25.34, 1.89 22.38 C0.36 19.43, -0.58 15.4, 0.21 12.15 C1 8.9, 3.73 4.83, 6.63 2.89 C9.53 0.94, 15.85 0.9, 17.62 0.5 C19.4 0.1, 17.28 0.22, 17.3 0.48 M13.48 0.41 C16.61 -0.27, 20.88 1.09, 23.74 2.58 C26.6 4.07, 29.42 6.41, 30.66 9.33 C31.9 12.25, 32.1 16.72, 31.17 20.1 C30.24 23.47, 27.92 27.62, 25.09 29.6 C22.26 31.57, 17.67 32.59, 14.21 31.94 C10.74 31.29, 6.62 28.33, 4.31 25.69 C2 23.04, 0.52 19.25, 0.35 16.08 C0.18 12.91, 1.23 9.28, 3.31 6.65 C5.38 4.02, 11.18 1.31, 12.82 0.29 C14.45 -0.74, 13.02 0.12, 13.11 0.5" stroke="none" stroke-width="0" fill="#ced4da"></path><path d="M16.44 0.35 C19.71 0.34, 24.31 2.32, 27 4.51 C29.68 6.7, 32.05 10.28, 32.54 13.47 C33.03 16.67, 31.91 20.79, 29.93 23.68 C27.95 26.56, 24.07 29.68, 20.68 30.78 C17.29 31.88, 12.71 31.52, 9.58 30.27 C6.46 29.02, 3.49 26.19, 1.95 23.27 C0.41 20.34, -0.33 16.07, 0.34 12.72 C1 9.38, 3.14 5.33, 5.94 3.19 C8.75 1.05, 15.03 0.39, 17.16 -0.13 C19.28 -0.66, 18.64 -0.26, 18.7 0.04 M13.25 0.83 C16.44 0.19, 21.41 1.04, 24.48 2.71 C27.55 4.38, 30.48 7.85, 31.68 10.86 C32.88 13.88, 32.83 17.8, 31.69 20.8 C30.55 23.79, 27.8 27.02, 24.84 28.84 C21.88 30.67, 17.53 32.27, 13.95 31.75 C10.36 31.23, 5.66 28.33, 3.32 25.71 C0.97 23.09, -0.25 19.37, -0.13 16.02 C-0.01 12.67, 1.69 8.19, 4.05 5.63 C6.41 3.07, 12.5 1.44, 14.03 0.66 C15.56 -0.12, 13.27 0.85, 13.22 0.94" stroke="#ced4da" stroke-width="1" fill="none"></path></g><g stroke-linecap="round" transform="translate(442.6037864690031 269.60822807725503) rotate(0 19.432120698725157 20.871537046778826)"><path d="M18.87 0.24 C22.87 -0.22, 28.2 1.76, 31.51 4.41 C34.83 7.05, 37.95 11.68, 38.74 16.1 C39.54 20.51, 38.29 26.91, 36.26 30.88 C34.23 34.86, 30.31 38.34, 26.58 39.94 C22.84 41.54, 17.8 41.76, 13.85 40.48 C9.89 39.2, 5.12 36, 2.85 32.26 C0.59 28.52, -0.34 22.41, 0.27 18.03 C0.88 13.65, 3.37 8.98, 6.49 5.99 C9.62 3, 16.66 0.95, 19.02 0.09 C21.38 -0.76, 20.67 0.5, 20.66 0.86 M17.56 0.81 C21.29 0.04, 26.61 0.8, 30 3.13 C33.39 5.46, 36.63 10.3, 37.89 14.79 C39.16 19.28, 39.21 25.82, 37.59 30.09 C35.98 34.36, 31.99 38.67, 28.19 40.43 C24.39 42.18, 18.82 41.88, 14.79 40.62 C10.75 39.37, 6.44 36.35, 3.96 32.9 C1.48 29.45, -0.36 24.36, -0.09 19.91 C0.18 15.46, 2.58 9.53, 5.56 6.2 C8.53 2.88, 15.73 0.79, 17.78 -0.04 C19.82 -0.88, 17.74 0.88, 17.8 1.2" stroke="none" stroke-width="0" fill="#ced4da"></path><path d="M20.64 0.39 C24.75 0.3, 30.24 2.61, 33.3 5.56 C36.35 8.51, 38.65 13.6, 38.99 18.1 C39.34 22.6, 37.77 28.75, 35.36 32.57 C32.96 36.39, 28.5 39.72, 24.56 41.02 C20.63 42.32, 15.54 42.1, 11.77 40.37 C8 38.63, 3.88 34.67, 1.94 30.6 C0.01 26.52, -0.79 20.36, 0.14 15.9 C1.07 11.44, 3.87 6.54, 7.51 3.84 C11.15 1.14, 19.52 0.23, 22 -0.29 C24.48 -0.82, 22.56 0.23, 22.39 0.68 M18.97 0.64 C22.99 0.2, 28.42 2.33, 31.73 4.92 C35.04 7.51, 37.91 11.98, 38.83 16.19 C39.75 20.39, 39.17 26.05, 37.27 30.15 C35.36 34.25, 31.44 39.03, 27.4 40.78 C23.37 42.54, 17.14 42.08, 13.06 40.67 C8.97 39.26, 4.98 36.1, 2.88 32.33 C0.78 28.57, -0.23 22.49, 0.47 18.08 C1.18 13.67, 4.08 8.8, 7.09 5.86 C10.1 2.91, 16.56 1.41, 18.52 0.41 C20.48 -0.6, 18.91 -0.34, 18.84 -0.18" stroke="#ced4da" stroke-width="1" fill="none"></path></g><g stroke-linecap="round" transform="translate(456.1343001407056 284.2902748274016) rotate(0 18.56847088989298 14.250221845731744)"><path d="M20.14 0.18 C23.93 0.13, 29.06 1.64, 31.8 3.81 C34.54 5.97, 36.28 10.15, 36.58 13.18 C36.89 16.22, 35.73 19.6, 33.62 22.01 C31.5 24.42, 27.7 26.73, 23.9 27.62 C20.1 28.52, 14.47 28.6, 10.82 27.39 C7.17 26.17, 3.68 23, 2.01 20.32 C0.34 17.63, -0.09 14.19, 0.79 11.28 C1.67 8.36, 3.93 4.63, 7.29 2.83 C10.66 1.03, 18.75 0.87, 20.99 0.5 C23.22 0.13, 20.85 0.36, 20.71 0.6 M18.61 -0.53 C22.35 -0.84, 27.46 0.87, 30.6 3.07 C33.73 5.28, 36.71 9.48, 37.41 12.7 C38.11 15.93, 36.92 19.97, 34.8 22.41 C32.68 24.84, 28.46 26.47, 24.69 27.3 C20.91 28.14, 15.88 28.34, 12.12 27.41 C8.36 26.48, 4.07 24.4, 2.11 21.73 C0.15 19.05, -0.49 14.5, 0.36 11.38 C1.21 8.25, 4.06 4.75, 7.21 2.97 C10.36 1.19, 17.21 1.19, 19.24 0.69 C21.27 0.19, 19.54 -0.2, 19.39 -0.03" stroke="none" stroke-width="0" fill="#ced4da"></path><path d="M22.06 -0.04 C25.88 0.12, 30.46 2.12, 32.94 4.5 C35.41 6.88, 36.97 11.08, 36.91 14.23 C36.85 17.39, 35.05 21.02, 32.59 23.43 C30.12 25.83, 25.98 28.03, 22.11 28.65 C18.24 29.27, 12.92 28.72, 9.36 27.14 C5.8 25.57, 2.21 22.2, 0.76 19.22 C-0.7 16.25, -0.84 12.24, 0.64 9.29 C2.11 6.35, 6.04 3.06, 9.61 1.56 C13.19 0.05, 20.03 0.4, 22.08 0.27 C24.14 0.14, 22.01 0.57, 21.93 0.79 M22.58 0.84 C26.35 1.08, 30.91 2.87, 33.44 5.08 C35.97 7.3, 37.81 10.93, 37.76 14.12 C37.71 17.31, 35.94 21.88, 33.14 24.23 C30.34 26.59, 25 27.83, 20.95 28.25 C16.9 28.67, 12.11 28.31, 8.83 26.75 C5.56 25.18, 2.44 21.72, 1.29 18.85 C0.15 15.98, 0.63 12.31, 1.99 9.52 C3.36 6.74, 6.1 3.8, 9.49 2.16 C12.88 0.51, 20.34 0.05, 22.34 -0.34 C24.35 -0.73, 21.58 -0.52, 21.51 -0.18" stroke="#ced4da" stroke-width="1" fill="none"></path></g><g stroke-linecap="round" transform="translate(423.603490674692 264.1384459546498) rotate(0 15.545696558980126 15.689638193785413)"><path d="M17.61 -0.08 C20.65 0.12, 24.15 2.87, 26.34 5.3 C28.52 7.72, 30.37 11.26, 30.69 14.49 C31.02 17.72, 30.21 21.9, 28.26 24.66 C26.31 27.41, 22.25 30.22, 19 31.04 C15.75 31.86, 11.68 30.99, 8.77 29.55 C5.87 28.12, 2.97 25.48, 1.56 22.45 C0.15 19.42, -0.68 14.61, 0.29 11.38 C1.26 8.15, 4.49 4.89, 7.4 3.06 C10.32 1.23, 15.87 0.72, 17.78 0.41 C19.7 0.09, 18.84 0.94, 18.87 1.16 M18.95 -0.05 C22.22 0.69, 26.46 4.05, 28.54 6.96 C30.63 9.87, 31.7 14.23, 31.45 17.41 C31.19 20.59, 29.31 23.77, 27 26.06 C24.7 28.36, 20.98 30.62, 17.61 31.18 C14.24 31.74, 9.61 31.27, 6.78 29.42 C3.95 27.56, 1.49 23.42, 0.62 20.06 C-0.26 16.7, 0.15 12.21, 1.52 9.26 C2.89 6.3, 5.84 3.84, 8.85 2.31 C11.86 0.79, 17.97 0.34, 19.57 0.12 C21.18 -0.1, 18.51 0.66, 18.49 1.02" stroke="none" stroke-width="0" fill="#ced4da"></path><path d="M18.44 -0.27 C21.48 0.14, 25.14 3, 27.19 5.67 C29.25 8.34, 30.71 12.34, 30.78 15.75 C30.86 19.16, 29.74 23.48, 27.64 26.13 C25.55 28.77, 21.61 31.1, 18.23 31.62 C14.86 32.15, 10.35 31.07, 7.4 29.29 C4.45 27.5, 1.53 24.13, 0.52 20.9 C-0.48 17.68, 0.17 13.08, 1.39 9.95 C2.6 6.83, 4.96 3.72, 7.82 2.15 C10.67 0.59, 16.59 0.8, 18.52 0.57 C20.44 0.35, 19.31 0.54, 19.37 0.8 M19.16 0.1 C22.33 0.4, 26.32 2.8, 28.41 5.59 C30.49 8.37, 31.97 13.4, 31.68 16.81 C31.38 20.23, 28.99 23.63, 26.65 26.08 C24.3 28.53, 20.78 31.04, 17.61 31.52 C14.44 32.01, 10.32 30.77, 7.63 29.01 C4.95 27.25, 2.61 24.11, 1.51 20.98 C0.4 17.85, -0.15 13.52, 1 10.23 C2.15 6.94, 5.54 3.01, 8.4 1.24 C11.27 -0.53, 16.43 -0.29, 18.17 -0.39 C19.92 -0.48, 18.85 0.3, 18.86 0.67" stroke="#ced4da" stroke-width="1" fill="none"></path></g><g stroke-linecap="round" transform="translate(410.36086027260467 272.19917750375043) rotate(0 21.447303586000316 19.576062333530444)"><path d="M22.54 0.5 C26.8 0.53, 32.61 2.55, 36.02 5.34 C39.42 8.13, 42.47 13.03, 42.97 17.25 C43.46 21.48, 41.56 27.17, 38.97 30.67 C36.38 34.16, 31.77 37, 27.43 38.2 C23.09 39.41, 17.2 39.56, 12.93 37.89 C8.66 36.23, 3.78 31.99, 1.82 28.21 C-0.15 24.43, 0.02 19.28, 1.13 15.22 C2.24 11.17, 4.64 6.32, 8.47 3.89 C12.3 1.45, 21.27 1.13, 24.13 0.61 C26.99 0.09, 25.55 0.56, 25.61 0.76 M18.12 0.88 C22.48 0.13, 28.55 1.39, 32.49 3.31 C36.43 5.22, 40.21 8.56, 41.79 12.35 C43.37 16.15, 43.59 21.97, 41.97 26.1 C40.36 30.24, 36.12 35.04, 32.09 37.16 C28.06 39.28, 22.26 39.67, 17.79 38.82 C13.32 37.98, 8.21 35.16, 5.28 32.08 C2.35 28.99, 0.19 24.56, 0.2 20.33 C0.21 16.11, 2.53 10.02, 5.33 6.73 C8.12 3.43, 14.83 1.53, 16.99 0.58 C19.16 -0.38, 18.26 0.76, 18.31 0.99" stroke="none" stroke-width="0" fill="#ced4da"></path><path d="M18.71 0.24 C22.92 -0.37, 29 0.97, 32.91 3.32 C36.81 5.67, 40.78 10.25, 42.15 14.33 C43.51 18.41, 43 24.02, 41.09 27.8 C39.18 31.59, 34.84 35.27, 30.68 37.05 C26.51 38.82, 20.42 39.46, 16.09 38.43 C11.77 37.4, 7.39 34.19, 4.72 30.87 C2.06 27.54, 0 22.57, 0.12 18.48 C0.25 14.4, 2.09 9.45, 5.48 6.37 C8.87 3.29, 17.61 0.95, 20.45 -0.01 C23.28 -0.97, 22.4 0.24, 22.5 0.62 M26.11 -0.07 C30.48 0.57, 35.95 4.51, 38.67 7.82 C41.39 11.13, 42.61 15.63, 42.42 19.78 C42.23 23.92, 40.42 29.49, 37.54 32.68 C34.67 35.87, 29.55 38.21, 25.16 38.9 C20.77 39.59, 15.21 38.89, 11.19 36.8 C7.17 34.72, 2.66 30.52, 1.06 26.39 C-0.54 22.26, 0.03 16.1, 1.59 12 C3.14 7.89, 6.41 3.69, 10.42 1.76 C14.43 -0.18, 23.19 0.55, 25.66 0.38 C28.13 0.21, 25.32 0.31, 25.26 0.72" stroke="#ced4da" stroke-width="1" fill="none"></path></g><g transform="translate(424.2762363895929 263.59522781947294) rotate(0 22.816383361816406 15.80854564659603)"><text x="22.816383361816406" y="0" font-family="Cascadia, Segoe UI Emoji" font-size="25.96307288220279px" fill="#000000" text-anchor="middle" style="white-space: pre;" direction="ltr" dominant-baseline="text-before-edge">DNS</text></g><g transform="translate(403.8404388623228 299.7244114537559) rotate(0 40.25279998779297 5.279443877405242)"><text x="0" y="0" font-family="Helvetica, Segoe UI Emoji" font-size="10.425792531010428px" fill="#000000" text-anchor="start" style="white-space: pre;" direction="ltr" dominant-baseline="text-before-edge">www     127.0.0.1</text></g><g stroke-linecap="round"><g transform="translate(449.4416525820027 305.71067116985273) rotate(0 -2.7482798856649424 -0.21126708502777092)"><path d="M0 0 C-0.92 -0.07, -4.58 -0.35, -5.5 -0.42 M0 0 C-0.92 -0.07, -4.58 -0.35, -5.5 -0.42" stroke="#000000" stroke-width="1" fill="none"></path></g><g transform="translate(449.4416525820027 305.71067116985273) rotate(0 -2.7482798856649424 -0.21126708502777092)"><path d="M-2.84 -1.16 C-3.37 -1.02, -3.91 -0.87, -5.5 -0.42 M-2.84 -1.16 C-3.61 -0.95, -4.37 -0.74, -5.5 -0.42" stroke="#000000" stroke-width="1" fill="none"></path></g><g transform="translate(449.4416525820027 305.71067116985273) rotate(0 -2.7482798856649424 -0.21126708502777092)"><path d="M-2.99 0.72 C-3.49 0.49, -3.99 0.26, -5.5 -0.42 M-2.99 0.72 C-3.71 0.39, -4.43 0.06, -5.5 -0.42" stroke="#000000" stroke-width="1" fill="none"></path></g></g><mask></mask><g stroke-linecap="round"><g transform="translate(1415.843710673312 232.45084473906354) rotate(0 38.45741983035805 41.7666869771067)" fill-rule="evenodd"><path d="M-1.16 -0.06 C-0.71 12.81, 0.84 61.09, 1.08 75.22 C1.31 89.34, -0.15 82.92, 0.26 84.71 C0.66 86.5, 0.66 84.62, 3.5 85.94 C6.34 87.25, 10.82 91.49, 17.28 92.6 C23.73 93.71, 34.17 93.01, 42.23 92.61 C50.29 92.21, 60.26 91.19, 65.64 90.21 C71.03 89.22, 72.87 87.92, 74.54 86.68 C76.21 85.44, 75.37 84.74, 75.66 82.77 C75.95 80.8, 76.44 87.34, 76.29 74.87 C76.15 62.4, 75.18 20.09, 74.79 7.96 C74.4 -4.17, 74.87 4.12, 73.95 2.08 C73.04 0.03, 71.86 -2.64, 69.3 -4.31 C66.73 -5.99, 63.78 -7.23, 58.58 -7.97 C53.38 -8.7, 44.93 -9.2, 38.09 -8.73 C31.26 -8.27, 23.62 -5.75, 17.57 -5.18 C11.52 -4.61, 4.78 -5.97, 1.77 -5.32 C-1.24 -4.66, -0.4 -2.21, -0.49 -1.25 C-0.57 -0.28, 0.93 0.32, 1.27 0.45" stroke="none" stroke-width="0" fill="#ced4da" fill-rule="evenodd"></path><path d="M0.22 -0.16 C0.42 12.1, 0.97 60.29, 0.98 74.3 C0.99 88.32, -0.3 81.67, 0.28 83.93 C0.87 86.19, 1.67 86.62, 4.49 87.88 C7.3 89.14, 11.2 90.97, 17.17 91.47 C23.13 91.98, 32.56 91.1, 40.29 90.92 C48.02 90.74, 57.9 91.36, 63.55 90.38 C69.19 89.41, 72.12 86.39, 74.16 85.08 C76.2 83.76, 75.46 83.92, 75.81 82.48 C76.15 81.05, 76.07 89.04, 76.23 76.47 C76.38 63.89, 76.52 20, 76.71 7.04 C76.91 -5.92, 78.18 0.55, 77.41 -1.3 C76.63 -3.15, 74.71 -3.42, 72.06 -4.07 C69.41 -4.73, 67.35 -4.5, 61.51 -5.23 C55.67 -5.95, 44.16 -8.32, 37.03 -8.43 C29.9 -8.55, 24.53 -6.68, 18.74 -5.91 C12.95 -5.15, 5.25 -4.78, 2.29 -3.83 C-0.67 -2.87, 1.21 -0.72, 0.98 -0.19 C0.75 0.34, 1.19 -0.56, 0.91 -0.62 M-1.13 -1.28 C-1 11.03, 0.28 60.97, 0.41 75.42 C0.54 89.86, -1.11 83.69, -0.34 85.39 C0.43 87.09, 1.78 85.05, 5.01 85.6 C8.24 86.16, 13.01 87.45, 19.06 88.73 C25.11 90, 33.78 93.17, 41.33 93.26 C48.88 93.36, 58.52 90.2, 64.35 89.29 C70.19 88.39, 74.17 88.62, 76.33 87.82 C78.49 87.01, 77.27 86.4, 77.31 84.46 C77.36 82.52, 76.66 89.46, 76.61 76.17 C76.56 62.89, 77.01 17.22, 77 4.75 C76.99 -7.71, 77.28 3.02, 76.55 1.41 C75.82 -0.21, 75.21 -3.88, 72.63 -4.94 C70.05 -6, 66.97 -4.23, 61.07 -4.95 C55.17 -5.67, 44.07 -8.78, 37.23 -9.26 C30.39 -9.74, 25.54 -8.81, 20.03 -7.83 C14.52 -6.85, 7.47 -4.72, 4.17 -3.4 C0.87 -2.07, 0.92 -0.35, 0.22 0.1 C-0.47 0.55, 0.13 -0.84, 0.01 -0.7" stroke="#000000" stroke-width="1" fill="none"></path></g></g><mask></mask><g stroke-linecap="round" transform="translate(1415.350042931372 223.67991811542947) rotate(0 38.25211272446222 7.736202016062066)"><path d="M36.01 -0.47 C43.87 -0.68, 54.74 0.08, 61.29 1.05 C67.84 2.03, 73.5 3.68, 75.32 5.39 C77.14 7.09, 75.85 9.76, 72.22 11.31 C68.59 12.86, 60.94 14.08, 53.57 14.67 C46.19 15.26, 35.89 15.31, 27.97 14.86 C20.05 14.41, 10.73 13.24, 6.06 11.96 C1.4 10.68, -0.99 8.75, -0.03 7.17 C0.93 5.59, 5.7 3.7, 11.83 2.47 C17.97 1.25, 32.44 0.21, 36.78 -0.17 C41.12 -0.54, 37.87 0.04, 37.87 0.22 M45.71 0.45 C53.37 0.61, 63.26 1.58, 68.5 2.78 C73.75 3.98, 77.39 6.01, 77.19 7.64 C76.98 9.26, 72.8 11.17, 67.28 12.53 C61.77 13.89, 52.29 15.39, 44.09 15.79 C35.89 16.19, 25.11 15.83, 18.08 14.92 C11.04 14.01, 4.53 11.92, 1.88 10.33 C-0.77 8.73, -0.78 6.89, 2.2 5.37 C5.18 3.84, 12.55 2.03, 19.76 1.17 C26.97 0.31, 41.21 0.39, 45.44 0.19 C49.67 0, 45.15 -0.11, 45.14 0" stroke="none" stroke-width="0" fill="#fff"></path><path d="M40.63 -0.22 C48.48 -0.32, 58.97 0.61, 64.87 1.8 C70.77 3, 75.09 5.32, 76.02 6.95 C76.95 8.59, 74.98 10.3, 70.45 11.6 C65.92 12.91, 56.74 14.27, 48.82 14.76 C40.9 15.25, 30.36 15.13, 22.92 14.54 C15.49 13.95, 7.82 12.55, 4.22 11.2 C0.62 9.84, -0.46 7.97, 1.32 6.4 C3.11 4.84, 8.26 2.84, 14.94 1.81 C21.62 0.78, 36.78 0.52, 41.42 0.24 C46.05 -0.05, 42.86 -0.03, 42.77 0.1 M46.31 0.06 C54.24 0.26, 63.67 1.25, 68.63 2.5 C73.59 3.74, 76.42 5.91, 76.08 7.53 C75.73 9.15, 71.93 10.9, 66.55 12.21 C61.16 13.51, 51.73 15, 43.76 15.36 C35.78 15.72, 25.64 15.19, 18.7 14.39 C11.76 13.59, 4.83 12.2, 2.12 10.55 C-0.59 8.91, -0.48 6, 2.44 4.51 C5.37 3.02, 12.41 2.27, 19.68 1.61 C26.94 0.94, 41.62 0.7, 46.05 0.5 C50.48 0.3, 46.47 0.3, 46.26 0.39" stroke="#000000" stroke-width="1" fill="none"></path></g><g transform="translate(1434.3526212930108 258.36687429028075) rotate(0 8.5576171875 18)"><text x="0" y="0" font-family="Cascadia, Segoe UI Emoji" font-size="29.219434366479078px" fill="#495057" text-anchor="start" style="white-space: pre;" direction="ltr" dominant-baseline="text-before-edge">{</text></g><g transform="translate(1456.3634946387563 258.8435842621998) rotate(0 8.607421875 17.97218159729391)"><text x="0" y="0" font-family="Cascadia, Segoe UI Emoji" font-size="29.384515916572173px" fill="#495057" text-anchor="start" style="white-space: pre;" direction="ltr" dominant-baseline="text-before-edge">}</text></g><g transform="translate(1393.9304642156087 324.46892977800667) rotate(0 60.136810302734375 12.93309552874723)"><text x="60.136810302734375" y="0" font-family="Virgil, Segoe UI Emoji" font-size="18.16360832146819px" fill="#000000" text-anchor="middle" style="white-space: pre;" direction="ltr" dominant-baseline="text-before-edge">Document DB</text></g><g stroke-linecap="round"><g transform="translate(142.1283499853182 183.131591673294) rotate(0 127.2352081248996 51.63968541413021)"><path d="M0.99 -0.41 C43.41 17.01, 211.66 87.13, 254.01 104.41 M0.05 -1.67 C42.32 15.44, 210.38 85.18, 252.82 102.89" stroke="#1e1e1e" stroke-width="2" fill="none"></path></g><g transform="translate(142.1283499853182 183.131591673294) rotate(0 127.2352081248996 51.63968541413021)"><path d="M222.85 101.54 C229.84 100.86, 240.08 103.02, 252.82 102.89 M222.85 101.54 C231.32 101.34, 240.04 102.37, 252.82 102.89" stroke="#1e1e1e" stroke-width="2" fill="none"></path></g><g transform="translate(142.1283499853182 183.131591673294) rotate(0 127.2352081248996 51.63968541413021)"><path d="M230.72 82.59 C235.69 86.83, 243.91 93.84, 252.82 102.89 M230.72 82.59 C236.93 88.03, 243.29 94.74, 252.82 102.89" stroke="#1e1e1e" stroke-width="2" fill="none"></path></g></g><mask></mask><g stroke-linecap="round"><g transform="translate(118.08018274143092 361.86117906583513) rotate(0 137.819852733189 -31.487539222972487)"><path d="M0.25 0.13 C46.28 -10.36, 230.78 -51.14, 276.73 -61.81 M-1.08 -0.84 C44.84 -11.13, 230.29 -52.96, 276.36 -63.33" stroke="#1e1e1e" stroke-width="2" fill="none"></path></g><g transform="translate(118.08018274143092 361.86117906583513) rotate(0 137.819852733189 -31.487539222972487)"><path d="M251.11 -47.12 C259.89 -50.94, 270.32 -57.85, 276.36 -63.33 M251.11 -47.12 C256.73 -50.63, 262.24 -53.83, 276.36 -63.33" stroke="#1e1e1e" stroke-width="2" fill="none"></path></g><g transform="translate(118.08018274143092 361.86117906583513) rotate(0 137.819852733189 -31.487539222972487)"><path d="M246.6 -67.14 C257.13 -64.06, 269.11 -64.06, 276.36 -63.33 M246.6 -67.14 C253.04 -66.18, 259.56 -64.89, 276.36 -63.33" stroke="#1e1e1e" stroke-width="2" fill="none"></path></g></g><mask></mask><g stroke-linecap="round"><g transform="translate(1146.623686239241 277.0599065327269) rotate(0 139.35010808839866 0.35267012637370954)"><path d="M-1.15 -0.27 C45.28 -0.02, 232.48 0.55, 279.2 0.69 M0.45 -1.46 C46.71 -0.94, 232.15 1.67, 278.51 2.21" stroke="#1e1e1e" stroke-width="2" fill="none"></path></g><g transform="translate(1146.623686239241 277.0599065327269) rotate(0 139.35010808839866 0.35267012637370954)"><path d="M250.19 12.11 C259.83 9.71, 270.27 6.11, 278.51 2.21 M250.19 12.11 C258.67 8.87, 265.91 7.38, 278.51 2.21" stroke="#1e1e1e" stroke-width="2" fill="none"></path></g><g transform="translate(1146.623686239241 277.0599065327269) rotate(0 139.35010808839866 0.35267012637370954)"><path d="M250.46 -8.41 C259.86 -3.55, 270.21 0.11, 278.51 2.21 M250.46 -8.41 C259.02 -5.75, 266.19 -1.34, 278.51 2.21" stroke="#1e1e1e" stroke-width="2" fill="none"></path></g></g><mask></mask><g stroke-linecap="round" transform="translate(675.5458007740119 10) rotate(0 49.19511986288535 48.249059865522156)"><path d="M-0.07 -1.76 L97.85 1.47 L99.89 97.22 L-1.12 98.06" stroke="none" stroke-width="0" fill="#eeeeee"></path><path d="M0 0 C24.7 -1.28, 52.94 0.78, 98.39 0 M0 0 C25.47 0.46, 53.06 1.25, 98.39 0 M98.39 0 C99.59 31.04, 99.88 62.4, 98.39 96.5 M98.39 0 C98.39 28.36, 98.92 55.19, 98.39 96.5 M98.39 96.5 C76.32 94.37, 49.47 94.52, 0 96.5 M98.39 96.5 C73.71 95.93, 46.73 95.5, 0 96.5 M0 96.5 C0.62 72.62, -1.68 49.47, 0 0 M0 96.5 C0.36 58.29, 0.11 19.83, 0 0" stroke="#000000" stroke-width="1" fill="none"></path></g><g stroke-linecap="round" transform="translate(714.651319047782 17.029213932798143) rotate(0 10.470341271721281 10.470341271721338)"><path d="M9.34 0.28 C11.43 -0.15, 14.52 0.52, 16.41 1.76 C18.3 3, 20.06 5.62, 20.68 7.69 C21.3 9.76, 21 12.23, 20.14 14.18 C19.28 16.12, 17.48 18.33, 15.53 19.35 C13.57 20.37, 10.61 20.76, 8.41 20.28 C6.21 19.81, 3.66 18.13, 2.31 16.5 C0.95 14.88, 0.21 12.72, 0.29 10.56 C0.37 8.39, 1.19 5.31, 2.8 3.51 C4.41 1.7, 8.69 0.35, 9.97 -0.27 C11.24 -0.9, 10.56 -0.45, 10.44 -0.25 M10.8 -0.45 C12.82 -0.48, 15.86 0.6, 17.54 2.12 C19.23 3.63, 20.56 6.28, 20.9 8.64 C21.23 11, 20.82 14.38, 19.56 16.27 C18.3 18.16, 15.55 19.3, 13.33 19.98 C11.11 20.65, 8.24 21.05, 6.26 20.32 C4.27 19.6, 2.48 17.66, 1.42 15.65 C0.36 13.63, -0.63 10.5, -0.11 8.21 C0.41 5.92, 2.63 3.37, 4.56 1.9 C6.49 0.43, 10.47 -0.29, 11.47 -0.61 C12.48 -0.92, 10.68 -0.28, 10.59 0.01" stroke="none" stroke-width="0" fill="#868e96"></path><path d="M11.07 -0.29 C13.23 -0.19, 16.11 1.79, 17.81 3.44 C19.51 5.09, 21.09 7.38, 21.28 9.61 C21.46 11.84, 20.19 14.99, 18.91 16.81 C17.64 18.63, 15.69 19.99, 13.63 20.52 C11.57 21.05, 8.67 20.82, 6.56 19.97 C4.45 19.13, 1.93 17.53, 0.96 15.43 C-0.01 13.33, 0.14 9.65, 0.75 7.37 C1.36 5.09, 2.84 3, 4.6 1.74 C6.37 0.48, 10.05 0.04, 11.32 -0.21 C12.58 -0.46, 12.06 0.1, 12.18 0.24 M9.73 0.02 C12.03 -0.35, 15.15 0.26, 16.84 1.4 C18.53 2.54, 19.38 4.64, 19.85 6.86 C20.31 9.08, 20.33 12.49, 19.63 14.69 C18.94 16.9, 17.62 19.21, 15.67 20.1 C13.71 20.98, 10.14 20.44, 7.9 19.99 C5.65 19.53, 3.45 19.08, 2.18 17.37 C0.91 15.66, 0.04 12.06, 0.25 9.74 C0.46 7.41, 1.85 4.98, 3.42 3.41 C4.99 1.83, 8.68 0.91, 9.67 0.28 C10.66 -0.35, 9.43 -0.62, 9.36 -0.39" stroke="#495057" stroke-width="1" fill="none"></path></g><g stroke-linecap="round" transform="translate(718.0779761912561 20.2655012349652) rotate(0 7.138869048900915 7.138869048900915)"><path d="M7.97 0.18 C9.42 0.23, 11.27 1.43, 12.31 2.42 C13.35 3.41, 14.04 4.74, 14.2 6.12 C14.35 7.5, 14.05 9.48, 13.23 10.72 C12.41 11.96, 10.75 13.13, 9.28 13.55 C7.8 13.98, 5.75 13.74, 4.37 13.27 C3 12.81, 1.71 12.07, 1.03 10.77 C0.35 9.48, -0.05 7.12, 0.31 5.51 C0.68 3.9, 1.93 2.08, 3.22 1.09 C4.51 0.1, 7.3 -0.25, 8.05 -0.42 C8.79 -0.59, 7.71 -0.18, 7.69 0.09 M5.55 -0.47 C6.98 -0.88, 9.05 -0.52, 10.45 0.31 C11.86 1.15, 13.45 3.13, 13.99 4.54 C14.53 5.95, 14.21 7.31, 13.68 8.77 C13.15 10.24, 12.01 12.36, 10.81 13.33 C9.61 14.3, 8.03 14.8, 6.48 14.57 C4.94 14.35, 2.54 13.23, 1.53 12.01 C0.53 10.78, 0.38 8.86, 0.46 7.23 C0.53 5.59, 1.2 3.41, 1.99 2.2 C2.78 0.99, 4.62 0.26, 5.22 -0.03 C5.82 -0.33, 5.4 0.36, 5.6 0.42" stroke="none" stroke-width="0" fill="#ffffff"></path><path d="M7.35 0.42 C8.91 0.45, 11.16 0.92, 12.28 1.93 C13.39 2.95, 13.81 5.02, 14.03 6.51 C14.25 7.99, 14.29 9.62, 13.59 10.85 C12.89 12.08, 11.35 13.34, 9.83 13.91 C8.3 14.47, 5.87 14.88, 4.44 14.24 C3.01 13.6, 1.94 11.52, 1.26 10.06 C0.57 8.6, 0.16 6.96, 0.34 5.49 C0.53 4.02, 1.12 2.18, 2.35 1.25 C3.59 0.32, 6.77 0.18, 7.76 -0.08 C8.76 -0.34, 8.4 -0.37, 8.33 -0.31 M6.91 -0.35 C8.17 -0.71, 9.33 -0.41, 10.44 0.5 C11.56 1.41, 12.96 3.51, 13.6 5.14 C14.23 6.76, 14.83 8.96, 14.26 10.26 C13.7 11.55, 11.67 12.15, 10.22 12.91 C8.78 13.67, 7.03 15.07, 5.59 14.81 C4.15 14.54, 2.44 12.65, 1.59 11.33 C0.74 10, 0.39 8.34, 0.5 6.85 C0.62 5.36, 1.32 3.65, 2.3 2.41 C3.28 1.16, 5.71 -0.34, 6.36 -0.62 C7.01 -0.9, 6.09 0.46, 6.2 0.73" stroke="#495057" stroke-width="1" fill="none"></path></g><g stroke-linecap="round" transform="translate(709.7017031738794 31.687691713207073) rotate(0 15.039217463017849 13.421073811933695)"><path d="M6.71 0 C9.77 1.05, 17.29 -1.12, 23.37 0 C25.52 -0.93, 30.97 3.42, 30.08 6.71 C31.4 10.56, 31.68 14.04, 30.08 20.13 C28.43 23.6, 27.85 27.37, 23.37 26.84 C17.58 24.28, 12.73 26.53, 6.71 26.84 C0.95 24.52, 2.35 25.3, 0 20.13 C-0.11 14.86, -1.96 13.31, 0 6.71 C-0.28 1.13, 2.65 3.11, 6.71 0" stroke="none" stroke-width="0" fill="#868e96"></path><path d="M6.71 0 C11.42 -1.1, 17.73 1.37, 23.37 0 M6.71 0 C13.63 0.7, 19.17 0.82, 23.37 0 M23.37 0 C27.79 -0.2, 31.97 3.87, 30.08 6.71 M23.37 0 C25.74 0.89, 29.2 0.53, 30.08 6.71 M30.08 6.71 C31.44 8.68, 29.55 12.06, 30.08 20.13 M30.08 6.71 C30.61 9.82, 29.53 12.99, 30.08 20.13 M30.08 20.13 C29 24.53, 29.44 27.42, 23.37 26.84 M30.08 20.13 C29.93 22.63, 28.38 29.11, 23.37 26.84 M23.37 26.84 C18.32 27.62, 12.86 26.89, 6.71 26.84 M23.37 26.84 C20.46 27.26, 15.83 27.62, 6.71 26.84 M6.71 26.84 C2.73 28.14, 0.7 26.18, 0 20.13 M6.71 26.84 C3.01 28.01, 2.11 24.44, 0 20.13 M0 20.13 C0.27 15.53, 0.2 12.13, 0 6.71 M0 20.13 C-0.06 15.78, -0.53 10.77, 0 6.71 M0 6.71 C-1.84 0.29, 1.72 0.36, 6.71 0 M0 6.71 C2.1 0.19, 1.79 -1.4, 6.71 0" stroke="#495057" stroke-width="1" fill="none"></path></g><g stroke-linecap="round" transform="translate(714.4609492064803 25.40548695017526) rotate(0 1.8085134923883288 4.188136508688501)"><path d="M0.9 0 C1.46 0, 2.01 0, 2.71 0 C3.32 0, 3.62 0.3, 3.62 0.9 C3.62 2.89, 3.62 4.88, 3.62 7.47 C3.62 8.07, 3.32 8.38, 2.71 8.38 C2.22 8.38, 1.72 8.38, 0.9 8.38 C0.3 8.38, 0 8.07, 0 7.47 C0 4.87, 0 2.27, 0 0.9 C0 0.3, 0.3 0, 0.9 0" stroke="none" stroke-width="0" fill="#868e96"></path><path d="M0.9 0 C1.47 0, 2.03 0, 2.71 0 M0.9 0 C1.38 0, 1.86 0, 2.71 0 M2.71 0 C3.32 0, 3.62 0.3, 3.62 0.9 M2.71 0 C3.32 0, 3.62 0.3, 3.62 0.9 M3.62 0.9 C3.62 2.75, 3.62 4.6, 3.62 7.47 M3.62 0.9 C3.62 2.84, 3.62 4.79, 3.62 7.47 M3.62 7.47 C3.62 8.07, 3.32 8.38, 2.71 8.38 M3.62 7.47 C3.62 8.07, 3.32 8.38, 2.71 8.38 M2.71 8.38 C2.05 8.38, 1.39 8.38, 0.9 8.38 M2.71 8.38 C2.04 8.38, 1.36 8.38, 0.9 8.38 M0.9 8.38 C0.3 8.38, 0 8.07, 0 7.47 M0.9 8.38 C0.3 8.38, 0 8.07, 0 7.47 M0 7.47 C0 5.98, 0 4.5, 0 0.9 M0 7.47 C0 5.36, 0 3.24, 0 0.9 M0 0.9 C0 0.3, 0.3 0, 0.9 0 M0 0.9 C0 0.3, 0.3 0, 0.9 0" stroke="#868e96" stroke-width="1" fill="none"></path></g><g stroke-linecap="round" transform="translate(732.1653444477558 25.40548695017526) rotate(0 1.8085134923883288 4.949615873904634)"><path d="M0.9 0 C1.51 0, 2.12 0, 2.71 0 C3.32 0, 3.62 0.3, 3.62 0.9 C3.62 3.06, 3.62 5.22, 3.62 8.99 C3.62 9.6, 3.32 9.9, 2.71 9.9 C2.32 9.9, 1.93 9.9, 0.9 9.9 C0.3 9.9, 0 9.6, 0 8.99 C0 7.29, 0 5.59, 0 0.9 C0 0.3, 0.3 0, 0.9 0" stroke="none" stroke-width="0" fill="#868e96"></path><path d="M0.9 0 C1.33 0, 1.76 0, 2.71 0 M0.9 0 C1.59 0, 2.27 0, 2.71 0 M2.71 0 C3.32 0, 3.62 0.3, 3.62 0.9 M2.71 0 C3.32 0, 3.62 0.3, 3.62 0.9 M3.62 0.9 C3.62 2.54, 3.62 4.18, 3.62 8.99 M3.62 0.9 C3.62 2.91, 3.62 4.92, 3.62 8.99 M3.62 8.99 C3.62 9.6, 3.32 9.9, 2.71 9.9 M3.62 8.99 C3.62 9.6, 3.32 9.9, 2.71 9.9 M2.71 9.9 C2.1 9.9, 1.48 9.9, 0.9 9.9 M2.71 9.9 C2.11 9.9, 1.5 9.9, 0.9 9.9 M0.9 9.9 C0.3 9.9, 0 9.6, 0 8.99 M0.9 9.9 C0.3 9.9, 0 9.6, 0 8.99 M0 8.99 C0 7.26, 0 5.53, 0 0.9 M0 8.99 C0 6.05, 0 3.1, 0 0.9 M0 0.9 C0 0.3, 0.3 0, 0.9 0 M0 0.9 C0 0.3, 0.3 0, 0.9 0" stroke="#868e96" stroke-width="1" fill="none"></path></g><g stroke-linecap="round" transform="translate(727.5012833358035 26.309743696368855) rotate(0 2.189253174996338 2.522400397278318)"><path d="M0 0 L4.38 0 L4.38 5.04 L0 5.04" stroke="none" stroke-width="0" fill="#ffffff"></path><path d="M0 0 C1.68 0, 3.36 0, 4.38 0 M0 0 C1.71 0, 3.43 0, 4.38 0 M4.38 0 C4.38 1.32, 4.38 2.64, 4.38 5.04 M4.38 0 C4.38 1.3, 4.38 2.6, 4.38 5.04 M4.38 5.04 C3.47 5.04, 2.55 5.04, 0 5.04 M4.38 5.04 C3.44 5.04, 2.5 5.04, 0 5.04 M0 5.04 C0 3.33, 0 1.61, 0 0 M0 5.04 C0 3.35, 0 1.66, 0 0" stroke="#ffffff" stroke-width="1" fill="none"></path></g><g stroke-linecap="round" transform="translate(718.3635309532126 26.40492861702171) rotate(0 0.7614793652160188 2.522400397278318)"><path d="M0 0 L1.52 0 L1.52 5.04 L0 5.04" stroke="none" stroke-width="0" fill="#ffffff"></path><path d="M0 0 C0.49 0, 0.99 0, 1.52 0 M0 0 C0.44 0, 0.88 0, 1.52 0 M1.52 0 C1.52 1.23, 1.52 2.46, 1.52 5.04 M1.52 0 C1.52 1.3, 1.52 2.6, 1.52 5.04 M1.52 5.04 C1.15 5.04, 0.77 5.04, 0 5.04 M1.52 5.04 C0.92 5.04, 0.31 5.04, 0 5.04 M0 5.04 C0 3.55, 0 2.05, 0 0 M0 5.04 C0 3.14, 0 1.23, 0 0" stroke="#ffffff" stroke-width="1" fill="none"></path></g><g stroke-linecap="round"><g transform="translate(735.6793994167326 32.198358898515494) rotate(0 0 -3.0459174608643593)"><path d="M0 0 C0.17 -2.31, -0.04 -4.41, 0 -6.09 M0 0 C-0.02 -2.4, -0.04 -4.62, 0 -6.09" stroke="#000000" stroke-width="1" fill="none"></path></g></g><mask></mask><g stroke-linecap="round"><g transform="translate(714.3418505911438 31.911038210374613) rotate(0 0 -3.0459174608643593)"><path d="M0 0 C-0.04 -1.58, 0.15 -3.72, 0 -6.09 M0 0 C-0.05 -2.03, -0.01 -4.03, 0 -6.09" stroke="#000000" stroke-width="1" fill="none"></path></g></g><mask></mask><g stroke-linecap="round"><g transform="translate(731.958083244497 31.660092160559657) rotate(0 0 -2.8555476195603546)"><path d="M0 0 C0.16 -1.87, 0.08 -3.47, 0 -5.71 M0 0 C-0.01 -1.2, -0.08 -2.62, 0 -5.71" stroke="#000000" stroke-width="1" fill="none"></path></g></g><mask></mask><g stroke-linecap="round"><g transform="translate(718.325279570997 31.639653439221433) rotate(0 0 -2.8555476195603546)"><path d="M0 0 C0.06 -2.33, -0.16 -4.62, 0 -5.71 M0 0 C-0.09 -1.93, -0.08 -3.82, 0 -5.71" stroke="#000000" stroke-width="1" fill="none"></path></g></g><mask></mask><g stroke-linecap="round" transform="translate(716.0689668021766 43.22693426462354) rotate(0 8.842071565248489 6.8188856986238875)"><path d="M7 -0.05 C8.75 -0.19, 11.88 0.68, 13.51 1.44 C15.14 2.2, 16.22 3.22, 16.77 4.52 C17.31 5.83, 17.46 7.89, 16.78 9.28 C16.1 10.66, 14.34 12.09, 12.68 12.82 C11.01 13.56, 8.58 14, 6.81 13.69 C5.04 13.37, 3.25 12.1, 2.06 10.91 C0.87 9.72, -0.36 7.95, -0.32 6.55 C-0.28 5.15, 0.89 3.62, 2.31 2.49 C3.73 1.37, 7.18 0.13, 8.21 -0.21 C9.24 -0.55, 8.53 0.23, 8.48 0.44 M7.03 0.25 C8.94 -0.17, 12.07 -0.44, 13.71 0.27 C15.35 0.97, 16.37 2.92, 16.86 4.47 C17.34 6.02, 17.19 8.25, 16.62 9.56 C16.05 10.87, 15.03 11.59, 13.45 12.35 C11.86 13.1, 8.94 14.31, 7.1 14.06 C5.26 13.81, 3.68 11.9, 2.4 10.85 C1.12 9.8, -0.49 9.24, -0.59 7.76 C-0.69 6.27, 0.64 3.23, 1.8 1.93 C2.95 0.63, 5.49 0.27, 6.36 -0.05 C7.23 -0.36, 6.85 -0.2, 7.01 0.05" stroke="none" stroke-width="0" fill="#ced4da"></path><path d="M8.11 -0.42 C9.81 -0.76, 11.83 -0.31, 13.32 0.59 C14.81 1.48, 16.43 3.43, 17.04 4.95 C17.66 6.47, 17.74 8.48, 17.02 9.72 C16.3 10.96, 14.48 11.8, 12.73 12.38 C10.98 12.97, 8.33 13.38, 6.52 13.22 C4.71 13.06, 2.91 12.53, 1.85 11.42 C0.79 10.3, 0.15 8.05, 0.15 6.55 C0.15 5.04, 0.49 3.43, 1.84 2.37 C3.2 1.31, 7.27 0.51, 8.3 0.2 C9.33 -0.12, 8.05 0.37, 8.01 0.49 M9.3 0.57 C11.2 0.74, 14.26 1.18, 15.58 2.21 C16.9 3.23, 17.09 5.23, 17.22 6.72 C17.35 8.22, 17.29 9.94, 16.34 11.15 C15.38 12.35, 13.31 13.59, 11.5 13.97 C9.69 14.35, 7.12 14.12, 5.46 13.42 C3.81 12.71, 2.48 11.07, 1.56 9.73 C0.64 8.38, -0.31 6.73, -0.05 5.35 C0.21 3.97, 1.64 2.32, 3.13 1.46 C4.61 0.59, 7.9 0.3, 8.85 0.15 C9.81 0, 8.66 0.46, 8.87 0.58" stroke="#000000" stroke-width="1" fill="none"></path></g><g stroke-linecap="round" transform="translate(721.7429929878997 35.9119743942955) rotate(0 3.1585602137179194 3.1585602137178626)"><path d="M2.74 0.34 C3.37 0.21, 3.96 0.09, 4.5 0.39 C5.03 0.69, 5.73 1.48, 5.95 2.14 C6.17 2.79, 6.06 3.67, 5.82 4.32 C5.57 4.97, 5 5.74, 4.47 6.05 C3.93 6.35, 3.28 6.3, 2.61 6.13 C1.95 5.97, 0.9 5.54, 0.48 5.05 C0.06 4.56, 0.01 3.89, 0.08 3.2 C0.16 2.51, 0.5 1.41, 0.94 0.92 C1.38 0.42, 2.45 0.33, 2.74 0.23 C3.03 0.13, 2.72 0.33, 2.68 0.32 M3.48 -0.36 C4.09 -0.42, 4.55 0.23, 4.95 0.77 C5.34 1.31, 5.66 2.26, 5.83 2.87 C5.99 3.48, 6.22 3.84, 5.92 4.43 C5.63 5.02, 4.65 6.17, 4.05 6.4 C3.45 6.63, 2.97 6.01, 2.31 5.83 C1.66 5.65, 0.49 5.93, 0.1 5.34 C-0.29 4.76, -0.12 3.08, -0.04 2.31 C0.04 1.53, 0.07 1.12, 0.57 0.71 C1.07 0.3, 2.56 -0.12, 2.97 -0.15 C3.39 -0.19, 2.98 0.37, 3.07 0.5" stroke="none" stroke-width="0" fill="#ced4da"></path><path d="M2.92 -0.3 C3.48 -0.28, 4.42 0.33, 4.97 0.84 C5.53 1.34, 6.1 2.16, 6.24 2.75 C6.37 3.33, 6.14 3.82, 5.77 4.35 C5.4 4.88, 4.61 5.57, 4.01 5.91 C3.41 6.26, 2.73 6.61, 2.16 6.43 C1.58 6.24, 0.97 5.41, 0.57 4.8 C0.17 4.19, -0.39 3.43, -0.25 2.78 C-0.12 2.14, 0.82 1.33, 1.38 0.9 C1.94 0.48, 2.8 0.33, 3.11 0.22 C3.42 0.1, 3.24 0.18, 3.26 0.2 M3.07 0.21 C3.68 0.08, 4 0.48, 4.54 0.86 C5.07 1.24, 5.99 1.85, 6.28 2.49 C6.57 3.13, 6.51 4.1, 6.27 4.72 C6.03 5.33, 5.38 5.94, 4.83 6.19 C4.28 6.44, 3.71 6.37, 2.98 6.22 C2.25 6.06, 1.02 5.77, 0.47 5.26 C-0.09 4.76, -0.35 3.87, -0.37 3.18 C-0.38 2.5, -0.08 1.63, 0.37 1.15 C0.81 0.67, 1.82 0.47, 2.29 0.32 C2.75 0.16, 3.08 0.15, 3.16 0.21" stroke="#495057" stroke-width="1" fill="none"></path></g><g stroke-linecap="round" transform="translate(714.2705793651755 48.771962195372566) rotate(0 10.565526192373227 4.346102972749293)"><path d="M0 0 L21.13 0 L21.13 8.69 L0 8.69" stroke="none" stroke-width="0" fill="#868e96"></path><path d="M0 0 C5.16 0, 10.32 0, 21.13 0 M0 0 C5.45 0, 10.9 0, 21.13 0 M21.13 0 C21.13 2.14, 21.13 4.28, 21.13 8.69 M21.13 0 C21.13 3.47, 21.13 6.93, 21.13 8.69 M21.13 8.69 C14.87 8.69, 8.61 8.69, 0 8.69 M21.13 8.69 C13.14 8.69, 5.14 8.69, 0 8.69 M0 8.69 C0 5.29, 0 1.89, 0 0 M0 8.69 C0 5.93, 0 3.17, 0 0" stroke="#868e96" stroke-width="1" fill="none"></path></g><g stroke-linecap="round"><g transform="translate(716.2816790975919 49.987864207168855) rotate(0 8.871255904349255 0.01187680855173312)"><path d="M0 0 C4.62 -0.7, 9.62 0.52, 17.74 0.02 M0 0 C4.84 -0.37, 10.25 0.04, 17.74 0.02" stroke="#000000" stroke-width="1" fill="none"></path></g></g><mask></mask><g transform="translate(689.9310604074051 55.1231745320307) rotate(0 34.80986022949219 26.5)"><text x="34.80986022949219" y="0" font-family="Virgil, Segoe UI Emoji" font-size="19.881777281041774px" fill="#000000" text-anchor="middle" style="white-space: pre;" direction="ltr" dominant-baseline="text-before-edge">Auth &amp;</text><text x="34.80986022949219" y="26.500000000000004" font-family="Virgil, Segoe UI Emoji" font-size="19.881777281041774px" fill="#000000" text-anchor="middle" style="white-space: pre;" direction="ltr" dominant-baseline="text-before-edge"> IAM</text></g><g stroke-linecap="round" transform="translate(678.9669791787571 247.8402788109488) rotate(0 37.04648275816635 37.04648275816635)"><path d="M32.44 0.46 C39.35 -0.78, 49.82 0.45, 56.3 4.06 C62.77 7.67, 68.49 15.21, 71.3 22.13 C74.1 29.05, 74.61 38.47, 73.12 45.58 C71.62 52.69, 67.67 60.12, 62.31 64.8 C56.94 69.48, 48.12 72.95, 40.94 73.67 C33.77 74.38, 25.6 72.85, 19.27 69.1 C12.94 65.35, 6.15 57.84, 2.96 51.15 C-0.23 44.45, -1.28 35.97, 0.15 28.93 C1.57 21.88, 5.29 13.71, 11.52 8.87 C17.75 4.04, 32.09 1.31, 37.51 -0.1 C42.93 -1.51, 43.95 -0.26, 44.04 0.42 M32.79 1.06 C39.61 -0.59, 48.71 0.18, 55.02 3.54 C61.32 6.89, 67.72 14.51, 70.63 21.2 C73.54 27.89, 73.72 36.86, 72.48 43.69 C71.24 50.52, 68.32 57.27, 63.18 62.17 C58.04 67.07, 48.74 71.84, 41.64 73.08 C34.55 74.32, 26.94 73.02, 20.58 69.61 C14.22 66.19, 6.85 59.12, 3.5 52.6 C0.15 46.08, -0.91 37.35, 0.48 30.48 C1.88 23.61, 6.65 16.42, 11.85 11.38 C17.06 6.34, 28.51 1.75, 31.73 0.22 C34.94 -1.31, 30.87 1.8, 31.13 2.21" stroke="none" stroke-width="0" fill="#62a1d6"></path><path d="M53.18 3.07 C59.59 5.38, 66.08 12.49, 69.59 18.93 C73.1 25.37, 75.06 34.54, 74.23 41.7 C73.4 48.86, 69.62 56.54, 64.6 61.89 C59.59 67.25, 51.4 72.25, 44.12 73.82 C36.85 75.39, 27.75 74.62, 20.96 71.3 C14.16 67.98, 6.74 60.59, 3.36 53.88 C-0.01 47.18, -0.63 38.27, 0.71 31.07 C2.05 23.87, 6.42 15.82, 11.4 10.69 C16.38 5.56, 22.75 0.84, 30.59 0.29 C38.43 -0.27, 53.43 5.75, 58.45 7.38 C63.47 9, 61.29 9.73, 60.72 10.04 M54.18 5.51 C60.74 8.05, 66.55 14.37, 69.98 20.42 C73.4 26.47, 75.63 34.52, 74.72 41.82 C73.81 49.13, 70 59.06, 64.5 64.25 C59 69.44, 49.04 71.77, 41.74 72.96 C34.43 74.15, 26.89 74.7, 20.67 71.4 C14.46 68.1, 7.75 59.75, 4.43 53.16 C1.1 46.57, -0.47 39.18, 0.72 31.88 C1.91 24.59, 6.55 14.73, 11.56 9.38 C16.57 4.03, 23.95 0.84, 30.79 -0.22 C37.64 -1.28, 48.88 1.96, 52.63 3.03 C56.38 4.11, 53.2 5.71, 53.3 6.25" stroke="#000000" stroke-width="1" fill="none"></path></g><g stroke-linecap="round"><g transform="translate(688.7449937941999 272.3420945770529) rotate(0 24.770632409630025 13.223895010853084)" fill-rule="evenodd"><path d="M0.14 -0.04 L0.91 22.32 L12.5 21.26 L11 13.72 L34.04 29.63 L32.85 33.82 L40.22 33.92 L40.83 37.89 L49.91 37.14 L49.24 28.59 L40.69 28.65 L40.81 31.09 L37.3 25.43 L35.38 27.38 L15.18 12.56 L33.59 12.13 L32.13 15.75 L39.86 13.63 L40.84 16.25 L49.55 17.59 L49.34 7.96 L39.88 7.58 L40.59 10.66 L31.94 8.35 L33.63 10.62 L15.58 9.48 L34.44 -0.56 L37.35 0.26 L39.53 -4.26 L41.16 -1.44 L48.77 -1.22 L49.4 -11.94 L40.2 -10.17 L39.39 -6.59 L32.23 -6.53 L34.13 -3.32 L11.79 8.98 L11.74 -0.68 L-0.18 0.15" stroke="none" stroke-width="0" fill="#fff" fill-rule="evenodd"></path><path d="M0 0 C-0.08 5.77, -0.01 9.04, 0.2 21.95 M0 0 C-0.33 6.62, -0.46 12.63, 0.2 21.95 M0.2 21.95 C3.43 21.66, 7.94 21.54, 11.72 22.06 M0.2 21.95 C4.66 22.18, 9.56 21.85, 11.72 22.06 M11.72 22.06 C12.2 19.18, 12.17 17.14, 11.89 13.63 M11.72 22.06 C11.95 18.59, 12.06 15.59, 11.89 13.63 M11.89 13.63 C18.43 17.83, 22.74 21.56, 34.93 29.75 M11.89 13.63 C19.96 19.3, 27.98 24.93, 34.93 29.75 M34.93 29.75 C34.35 30.49, 34.15 31.38, 33.26 32.84 M34.93 29.75 C34.43 30.75, 33.81 31.67, 33.26 32.84 M33.26 32.84 C35.82 33.33, 38.03 33.61, 40.86 34.26 M33.26 32.84 C35.95 33.25, 38.93 33.77, 40.86 34.26 M40.86 34.26 C40.94 34.89, 40.82 35.85, 40.86 37.52 M40.86 34.26 C40.93 35.18, 40.91 35.99, 40.86 37.52 M40.86 37.52 C43.83 37.47, 46.13 37.03, 49.52 37.08 M40.86 37.52 C43.05 37.28, 45.34 37.25, 49.52 37.08 M49.52 37.08 C49.45 33.79, 49.83 31.19, 49.54 28.14 M49.52 37.08 C49.67 35.23, 49.3 33.16, 49.54 28.14 M49.54 28.14 C47.83 28.51, 45 27.83, 40.92 28.24 M49.54 28.14 C46.05 27.99, 42.91 28.24, 40.92 28.24 M40.92 28.24 C41.03 28.7, 40.84 29.43, 40.88 30.86 M40.92 28.24 C40.95 29.11, 40.86 29.99, 40.88 30.86 M40.88 30.86 C39.86 28.96, 38.31 26.53, 37.61 25.5 M40.88 30.86 C39.59 28.83, 38.3 26.96, 37.61 25.5 M37.61 25.5 C37.08 26.35, 36.54 26.99, 35.96 27.79 M37.61 25.5 C37.02 26.25, 36.5 26.99, 35.96 27.79 M35.96 27.79 C30.86 23.35, 24.98 19.98, 16.16 12.9 M35.96 27.79 C29.55 22.7, 22.71 17.39, 16.16 12.9 M16.16 12.9 C20.59 12.83, 23.86 12.7, 32.98 12.88 M16.16 12.9 C19.32 12.64, 22.63 12.62, 32.98 12.88 M32.98 12.88 C33.05 13.48, 32.96 14.33, 32.88 15.27 M32.98 12.88 C32.91 13.45, 32.88 14.08, 32.88 15.27 M32.88 15.27 C35.02 14.85, 37.56 13.68, 40.27 12.88 M32.88 15.27 C35.67 14.36, 38.54 13.57, 40.27 12.88 M40.27 12.88 C40.05 14.44, 40.45 15.92, 40.27 17.15 M40.27 12.88 C40.27 13.92, 40.33 14.89, 40.27 17.15 M40.27 17.15 C42.52 17.31, 45.9 16.95, 49.44 17.09 M40.27 17.15 C42.65 17.08, 44.77 17.15, 49.44 17.09 M49.44 17.09 C49.59 13.54, 49.33 10.45, 49.54 7.83 M49.44 17.09 C49.5 15.06, 49.43 12.69, 49.54 7.83 M49.54 7.83 C46.55 7.99, 43.79 8.26, 40.31 7.83 M49.54 7.83 C47.55 7.61, 45.66 7.67, 40.31 7.83 M40.31 7.83 C40.34 8.6, 40.28 9.47, 40.17 10.7 M40.31 7.83 C40.23 8.68, 40.18 9.53, 40.17 10.7 M40.17 10.7 C37.56 9.95, 35.28 8.91, 32.9 7.77 M40.17 10.7 C38.54 9.93, 37.17 9.47, 32.9 7.77 M32.9 7.77 C33 8.3, 32.89 8.94, 33.06 9.75 M32.9 7.77 C32.92 8.45, 33.03 9.16, 33.06 9.75 M33.06 9.75 C29.04 9.62, 24.46 10.11, 16.36 9.56 M33.06 9.75 C29.13 9.48, 24.96 9.31, 16.36 9.56 M16.36 9.56 C20.97 6.46, 24.14 4.59, 35.4 -1.5 M16.36 9.56 C21.4 6.71, 26.26 4.09, 35.4 -1.5 M35.4 -1.5 C35.72 -0.89, 36.3 -0.31, 36.85 0.7 M35.4 -1.5 C35.98 -0.68, 36.5 0.07, 36.85 0.7 M36.85 0.7 C38.23 -0.83, 39.47 -3, 40.25 -4.39 M36.85 0.7 C37.84 -0.7, 38.47 -1.76, 40.25 -4.39 M40.25 -4.39 C40.16 -3.57, 40.2 -2.46, 40.27 -1.55 M40.25 -4.39 C40.33 -3.3, 40.2 -2.32, 40.27 -1.55 M40.27 -1.55 C42.86 -1.27, 44.5 -1.31, 49.36 -1.46 M40.27 -1.55 C43.56 -1.32, 47.38 -1.48, 49.36 -1.46 M49.36 -1.46 C49.48 -4.17, 48.82 -7.03, 49.3 -10.97 M49.36 -1.46 C49.25 -4.45, 49.3 -7.78, 49.3 -10.97 M49.3 -10.97 C46.42 -11.01, 42.47 -10.74, 40.03 -11.07 M49.3 -10.97 C47 -10.75, 44.16 -11.12, 40.03 -11.07 M40.03 -11.07 C39.9 -9.63, 39.92 -8.39, 39.95 -7.21 M40.03 -11.07 C40.04 -9.73, 39.98 -8.48, 39.95 -7.21 M39.95 -7.21 C37.49 -6.98, 35.12 -6.46, 33.22 -6.1 M39.95 -7.21 C37.74 -6.79, 35.66 -6.51, 33.22 -6.1 M33.22 -6.1 C33.56 -5.36, 33.75 -4.57, 34.19 -3.38 M33.22 -6.1 C33.51 -5.35, 33.8 -4.64, 34.19 -3.38 M34.19 -3.38 C30.1 -1.23, 23.95 2.72, 11.81 9.38 M34.19 -3.38 C27.04 1.26, 19.29 5.1, 11.81 9.38 M11.81 9.38 C11.76 6.02, 11.56 3.21, 11.52 0 M11.81 9.38 C11.76 7.51, 11.7 5.64, 11.52 0 M11.52 0 C6.79 -0.47, 2.31 -0.27, 0 0 M11.52 0 C8.5 -0.18, 5.29 0.16, 0 0 M0 0 C0 0, 0 0, 0 0 M0 0 C0 0, 0 0, 0 0" stroke="#000000" stroke-width="1" fill="none"></path></g></g><mask></mask><g stroke-linecap="round"><g transform="translate(495.9064357260206 286.798445558858) rotate(0 88.478410118797 -0.42778499954670224)"><path d="M-0.72 0.07 C28.42 -0.3, 146.1 -1.84, 175.81 -1.93 M1.1 -0.93 C30.51 -1.23, 148.6 -0.68, 177.92 -0.96" stroke="#1e1e1e" stroke-width="2" fill="none"></path></g><g transform="translate(495.9064357260206 286.798445558858) rotate(0 88.478410118797 -0.42778499954670224)"><path d="M149.75 9.35 C160.55 3.69, 169.34 2.63, 177.92 -0.96 M149.75 9.35 C158.7 5.44, 168.21 2.99, 177.92 -0.96" stroke="#1e1e1e" stroke-width="2" fill="none"></path></g><g transform="translate(495.9064357260206 286.798445558858) rotate(0 88.478410118797 -0.42778499954670224)"><path d="M149.72 -11.18 C160.58 -9.03, 169.38 -2.29, 177.92 -0.96 M149.72 -11.18 C158.67 -8.33, 168.19 -4.02, 177.92 -0.96" stroke="#1e1e1e" stroke-width="2" fill="none"></path></g></g><mask></mask><g stroke-linecap="round"><g transform="translate(758.0818023788881 283.3703814314015) rotate(0 136.27562621285688 -2.1940978345418216)"><path d="M0.24 -0.26 C45.82 -1.21, 227.18 -4.07, 272.74 -4.95 M-1.1 -1.44 C44.4 -2.3, 226.15 -3.15, 271.9 -3.7" stroke="#1e1e1e" stroke-width="2" fill="none"></path></g><g transform="translate(758.0818023788881 283.3703814314015) rotate(0 136.27562621285688 -2.1940978345418216)"><path d="M243.79 6.79 C250.01 4.55, 256.22 3.47, 271.9 -3.7 M243.79 6.79 C249.66 3.79, 255.05 1.7, 271.9 -3.7" stroke="#1e1e1e" stroke-width="2" fill="none"></path></g><g transform="translate(758.0818023788881 283.3703814314015) rotate(0 136.27562621285688 -2.1940978345418216)"><path d="M243.62 -13.73 C250.01 -11.07, 256.27 -7.25, 271.9 -3.7 M243.62 -13.73 C249.46 -12.45, 254.88 -10.25, 271.9 -3.7" stroke="#1e1e1e" stroke-width="2" fill="none"></path></g></g><mask></mask><g stroke-linecap="round" transform="translate(1051.3337099199723 236.71093498972027) rotate(0 48.02441435389869 47.10086792401603)"><path d="M0.72 1.06 L95.22 0 L94.49 92.94 L-1.5 95.82" stroke="none" stroke-width="0" fill="#868e96"></path><path d="M0 0 C37 1, 73.36 -0.84, 96.05 0 M0 0 C26.9 -0.56, 53.87 -1.1, 96.05 0 M96.05 0 C97.02 22.48, 95.13 42.22, 96.05 94.2 M96.05 0 C96.1 23.95, 95.06 49.46, 96.05 94.2 M96.05 94.2 C65.43 95.96, 35.86 95.82, 0 94.2 M96.05 94.2 C71.83 94.59, 49.18 94.55, 0 94.2 M0 94.2 C-1.54 71.14, -1.22 45.05, 0 0 M0 94.2 C-1.76 62.88, -0.37 32.89, 0 0" stroke="#000000" stroke-width="1" fill="none"></path></g><g stroke-linecap="round" transform="translate(1045.0628296610723 230.55088030240245) rotate(0 48.02441435389869 47.10086792401603)"><path d="M-0.83 0 L94.49 -1.26 L94.55 95.82 L-1.48 93.8" stroke="none" stroke-width="0" fill="#ced4da"></path><path d="M0 0 C33.55 -1.1, 66.13 -0.18, 96.05 0 M0 0 C31.98 -0.54, 64.33 -0.38, 96.05 0 M96.05 0 C96.37 27.72, 95.96 56.62, 96.05 94.2 M96.05 0 C96.13 27.57, 96.81 54.99, 96.05 94.2 M96.05 94.2 C64.5 96.03, 28.68 94.71, 0 94.2 M96.05 94.2 C69.42 95.42, 42.99 94.77, 0 94.2 M0 94.2 C-0.51 72.51, 1.23 54.8, 0 0 M0 94.2 C1.34 58.7, 1.23 24.17, 0 0" stroke="#000000" stroke-width="1" fill="none"></path></g><g stroke-linecap="round" transform="translate(1038.090054115459 223.66122393547835) rotate(0 48.02441435389869 47.10086792401603)"><path d="M-1.56 -1.26 L94.55 1.62 L94.56 93.8 L-1.75 93.06" stroke="none" stroke-width="0" fill="#eeeeee"></path><path d="M0 0 C35.41 0.71, 72.27 -0.41, 96.05 0 M0 0 C26.28 0.13, 54.03 1.45, 96.05 0 M96.05 0 C95.07 30.9, 95.63 65.19, 96.05 94.2 M96.05 0 C95.83 23.71, 96.06 46.09, 96.05 94.2 M96.05 94.2 C59.69 94.64, 25.12 92.87, 0 94.2 M96.05 94.2 C60.62 94.74, 25.27 93.99, 0 94.2 M0 94.2 C1.08 63.18, 2.08 26.77, 0 0 M0 94.2 C-0.08 73.76, -0.86 52.26, 0 0" stroke="#000000" stroke-width="1" fill="none"></path></g><g transform="translate(1054.1216782471895 240.76209185949438) rotate(0 31.99279022216797 30)"><text x="31.99279022216797" y="0" font-family="Virgil, Segoe UI Emoji" font-size="14.876839160052583px" fill="#000000" text-anchor="middle" style="white-space: pre;" direction="ltr" dominant-baseline="text-before-edge">Multi</text><text x="31.99279022216797" y="20" font-family="Virgil, Segoe UI Emoji" font-size="14.876839160052583px" fill="#000000" text-anchor="middle" style="white-space: pre;" direction="ltr" dominant-baseline="text-before-edge">Instance</text><text x="31.99279022216797" y="40" font-family="Virgil, Segoe UI Emoji" font-size="14.876839160052583px" fill="#000000" text-anchor="middle" style="white-space: pre;" direction="ltr" dominant-baseline="text-before-edge">server</text></g><g stroke-linecap="round" transform="translate(689.7971855294529 420.6684211395916) rotate(0 32.54042053222656 32.54042053222645)"><path d="M0 0 C0 0, 0 0, 0 0 M0 0 C0 0, 0 0, 0 0 M0.13 12.04 C2.52 9.29, 4.92 6.54, 10.63 -0.03 M0.13 12.04 C2.41 9.42, 4.69 6.8, 10.63 -0.03 M0.27 24.08 C5.99 17.5, 11.72 10.91, 21.26 -0.07 M0.27 24.08 C6.53 16.87, 12.8 9.66, 21.26 -0.07 M-0.26 36.88 C8.78 26.48, 17.82 16.09, 31.89 -0.1 M-0.26 36.88 C6.6 28.99, 13.45 21.11, 31.89 -0.1 M-0.12 48.92 C11.85 35.15, 23.82 21.38, 42.52 -0.14 M-0.12 48.92 C14.82 31.73, 29.77 14.54, 42.52 -0.14 M0.01 60.96 C11.15 48.15, 22.28 35.34, 53.15 -0.17 M0.01 60.96 C19.9 38.08, 39.78 15.21, 53.15 -0.17 M6.7 65.45 C29.39 39.36, 52.07 13.26, 63.78 -0.21 M6.7 65.45 C20.46 49.63, 34.22 33.8, 63.78 -0.21 M17.33 65.42 C29.31 51.64, 41.29 37.86, 65.88 9.57 M17.33 65.42 C27.96 53.19, 38.59 40.96, 65.88 9.57 M27.96 65.38 C39.92 51.63, 51.87 37.88, 66.02 21.61 M27.96 65.38 C39.62 51.97, 51.28 38.57, 66.02 21.61 M38.59 65.35 C49.13 53.23, 59.66 41.11, 65.49 34.41 M38.59 65.35 C45.33 57.6, 52.07 49.84, 65.49 34.41 M49.22 65.31 C55.58 58, 61.94 50.68, 65.63 46.45 M49.22 65.31 C55.24 58.39, 61.26 51.47, 65.63 46.45 M59.85 65.28 C61.09 63.86, 62.32 62.44, 65.76 58.49 M59.85 65.28 C61.96 62.86, 64.07 60.43, 65.76 58.49 M0.23 65.28 C0.23 65.28, 0.23 65.28, 0.23 65.28 M0.23 65.28 C0.23 65.28, 0.23 65.28, 0.23 65.28 M12.27 65.15 C9.5 62.74, 6.74 60.34, 0.19 54.65 M12.27 65.15 C9.74 62.95, 7.21 60.75, 0.19 54.65 M24.31 65.01 C15.58 57.43, 6.85 49.84, 0.16 44.02 M24.31 65.01 C15.2 57.1, 6.09 49.18, 0.16 44.02 M36.35 64.88 C23.75 53.92, 11.14 42.97, 0.13 33.39 M36.35 64.88 C26.74 56.52, 17.12 48.17, 0.13 33.39 M49.15 65.4 C34.27 52.47, 19.39 39.54, 0.09 22.76 M49.15 65.4 C30.03 48.78, 10.91 32.16, 0.09 22.76 M61.19 65.27 C47.31 53.2, 33.43 41.14, 0.06 12.13 M61.19 65.27 C38.88 45.88, 16.57 26.49, 0.06 12.13 M64.93 57.92 C46.38 41.8, 27.83 25.67, 0.02 1.5 M64.93 57.92 C43.95 39.69, 22.98 21.45, 0.02 1.5 M65.65 47.95 C49.25 33.69, 32.85 19.43, 9.8 -0.6 M65.65 47.95 C47.03 31.76, 28.41 15.58, 9.8 -0.6 M65.61 37.32 C48.37 22.32, 31.12 7.33, 21.84 -0.74 M65.61 37.32 C56 28.96, 46.38 20.6, 21.84 -0.74 M65.58 26.69 C54.78 17.3, 43.99 7.92, 33.88 -0.87 M65.58 26.69 C53.52 16.21, 41.47 5.73, 33.88 -0.87 M65.54 16.06 C58.4 9.85, 51.26 3.64, 46.68 -0.35 M65.54 16.06 C61.66 12.68, 57.77 9.3, 46.68 -0.35 M65.51 5.43 C63.29 3.5, 61.08 1.57, 58.72 -0.48 M65.51 5.43 C63.48 3.66, 61.44 1.89, 58.72 -0.48" stroke="#40c05788" stroke-width="1" fill="none"></path><path d="M0 0 C24.27 0, 48.54 0, 65.08 0 M0 0 C18.19 0, 36.38 0, 65.08 0 M65.08 0 C65.08 15.7, 65.08 31.4, 65.08 65.08 M65.08 0 C65.08 23.74, 65.08 47.48, 65.08 65.08 M65.08 65.08 C42.56 65.08, 20.04 65.08, 0 65.08 M65.08 65.08 C39.82 65.08, 14.55 65.08, 0 65.08 M0 65.08 C0 40.22, 0 15.37, 0 0 M0 65.08 C0 48.76, 0 32.44, 0 0" stroke="#000000" stroke-width="2" fill="none"></path></g><g stroke-linecap="round" transform="translate(703.4100407071116 431.73551716510724) rotate(0 19.552815755208258 5.376997727614139)"><path d="M39.11 5.38 C39.11 5.69, 39.01 6, 38.81 6.31 C38.61 6.62, 38.31 6.92, 37.93 7.22 C37.54 7.51, 37.05 7.8, 36.49 8.07 C35.92 8.34, 35.26 8.59, 34.53 8.83 C33.8 9.07, 32.99 9.3, 32.12 9.5 C31.25 9.7, 30.31 9.88, 29.33 10.03 C28.35 10.19, 27.3 10.32, 26.24 10.43 C25.18 10.54, 24.06 10.62, 22.95 10.67 C21.83 10.73, 20.68 10.75, 19.55 10.75 C18.42 10.75, 17.27 10.73, 16.16 10.67 C15.04 10.62, 13.93 10.54, 12.87 10.43 C11.8 10.32, 10.76 10.19, 9.78 10.03 C8.8 9.88, 7.85 9.7, 6.98 9.5 C6.12 9.3, 5.3 9.07, 4.57 8.83 C3.85 8.59, 3.19 8.34, 2.62 8.07 C2.05 7.8, 1.57 7.51, 1.18 7.22 C0.79 6.92, 0.49 6.62, 0.3 6.31 C0.1 6, 0 5.69, 0 5.38 C0 5.07, 0.1 4.75, 0.3 4.44 C0.49 4.14, 0.79 3.83, 1.18 3.54 C1.57 3.25, 2.05 2.96, 2.62 2.69 C3.19 2.42, 3.85 2.16, 4.57 1.92 C5.3 1.68, 6.12 1.46, 6.98 1.26 C7.85 1.06, 8.8 0.88, 9.78 0.72 C10.76 0.56, 11.8 0.43, 12.87 0.32 C13.93 0.22, 15.04 0.14, 16.16 0.08 C17.27 0.03, 18.42 0, 19.55 0 C20.68 0, 21.83 0.03, 22.95 0.08 C24.06 0.14, 25.18 0.22, 26.24 0.32 C27.3 0.43, 28.35 0.56, 29.33 0.72 C30.31 0.88, 31.25 1.06, 32.12 1.26 C32.99 1.46, 33.8 1.68, 34.53 1.92 C35.26 2.16, 35.92 2.42, 36.49 2.69 C37.05 2.96, 37.54 3.25, 37.93 3.54 C38.31 3.83, 38.61 4.14, 38.81 4.44 C39.01 4.75, 39.06 5.22, 39.11 5.38 C39.16 5.53, 39.16 5.22, 39.11 5.38" stroke="#000000" stroke-width="2" fill="none"></path></g><g stroke-linecap="round"><g transform="translate(703.7679571233782 437.6139852139861) rotate(0 19.14788661858961 20.243310703375414)"><path d="M0 0 C0.64 5.36, 2.72 25.82, 3.85 32.15 C4.97 38.48, 4.02 36.6, 6.77 37.99 C9.52 39.38, 16.05 40.42, 20.35 40.49 C24.64 40.56, 30.03 39.82, 32.54 38.4 C35.04 36.98, 34.41 38.33, 35.37 31.94 C36.33 25.56, 37.81 5.41, 38.3 0.1 M0 0 C0.64 5.36, 2.72 25.82, 3.85 32.15 C4.97 38.48, 4.02 36.6, 6.77 37.99 C9.52 39.38, 16.05 40.42, 20.35 40.49 C24.64 40.56, 30.03 39.82, 32.54 38.4 C35.04 36.98, 34.41 38.33, 35.37 31.94 C36.33 25.56, 37.81 5.41, 38.3 0.1" stroke="#000000" stroke-width="2" fill="none"></path></g></g><mask></mask><g stroke-linecap="round" transform="translate(720.5382452093161 447.8764843923584) rotate(0 2.349090576171875 2.349090576171875)"><path d="M4.7 2.35 C4.7 2.49, 4.69 2.62, 4.66 2.76 C4.64 2.89, 4.6 3.02, 4.56 3.15 C4.51 3.28, 4.45 3.41, 4.38 3.52 C4.32 3.64, 4.24 3.75, 4.15 3.86 C4.06 3.96, 3.96 4.06, 3.86 4.15 C3.75 4.24, 3.64 4.32, 3.52 4.38 C3.41 4.45, 3.28 4.51, 3.15 4.56 C3.02 4.6, 2.89 4.64, 2.76 4.66 C2.62 4.69, 2.49 4.7, 2.35 4.7 C2.21 4.7, 2.08 4.69, 1.94 4.66 C1.81 4.64, 1.67 4.6, 1.55 4.56 C1.42 4.51, 1.29 4.45, 1.17 4.38 C1.06 4.32, 0.94 4.24, 0.84 4.15 C0.73 4.06, 0.64 3.96, 0.55 3.86 C0.46 3.75, 0.38 3.64, 0.31 3.52 C0.25 3.41, 0.19 3.28, 0.14 3.15 C0.1 3.02, 0.06 2.89, 0.04 2.76 C0.01 2.62, 0 2.49, 0 2.35 C0 2.21, 0.01 2.08, 0.04 1.94 C0.06 1.81, 0.1 1.67, 0.14 1.55 C0.19 1.42, 0.25 1.29, 0.31 1.17 C0.38 1.06, 0.46 0.94, 0.55 0.84 C0.64 0.73, 0.73 0.64, 0.84 0.55 C0.94 0.46, 1.06 0.38, 1.17 0.31 C1.29 0.25, 1.42 0.19, 1.55 0.14 C1.67 0.1, 1.81 0.06, 1.94 0.04 C2.08 0.01, 2.21 0, 2.35 0 C2.49 0, 2.62 0.01, 2.76 0.04 C2.89 0.06, 3.02 0.1, 3.15 0.14 C3.28 0.19, 3.41 0.25, 3.52 0.31 C3.64 0.38, 3.75 0.46, 3.86 0.55 C3.96 0.64, 4.06 0.73, 4.15 0.84 C4.24 0.94, 4.32 1.06, 4.38 1.17 C4.45 1.29, 4.51 1.42, 4.56 1.55 C4.6 1.67, 4.64 1.81, 4.66 1.94 C4.69 2.08, 4.69 2.28, 4.7 2.35 C4.7 2.42, 4.7 2.28, 4.7 2.35" stroke="none" stroke-width="0" fill="#000"></path><path d="M4.7 2.35 C4.7 2.49, 4.69 2.62, 4.66 2.76 C4.64 2.89, 4.6 3.02, 4.56 3.15 C4.51 3.28, 4.45 3.41, 4.38 3.52 C4.32 3.64, 4.24 3.75, 4.15 3.86 C4.06 3.96, 3.96 4.06, 3.86 4.15 C3.75 4.24, 3.64 4.32, 3.52 4.38 C3.41 4.45, 3.28 4.51, 3.15 4.56 C3.02 4.6, 2.89 4.64, 2.76 4.66 C2.62 4.69, 2.49 4.7, 2.35 4.7 C2.21 4.7, 2.08 4.69, 1.94 4.66 C1.81 4.64, 1.67 4.6, 1.55 4.56 C1.42 4.51, 1.29 4.45, 1.17 4.38 C1.06 4.32, 0.94 4.24, 0.84 4.15 C0.73 4.06, 0.64 3.96, 0.55 3.86 C0.46 3.75, 0.38 3.64, 0.31 3.52 C0.25 3.41, 0.19 3.28, 0.14 3.15 C0.1 3.02, 0.06 2.89, 0.04 2.76 C0.01 2.62, 0 2.49, 0 2.35 C0 2.21, 0.01 2.08, 0.04 1.94 C0.06 1.81, 0.1 1.67, 0.14 1.55 C0.19 1.42, 0.25 1.29, 0.31 1.17 C0.38 1.06, 0.46 0.94, 0.55 0.84 C0.64 0.73, 0.73 0.64, 0.84 0.55 C0.94 0.46, 1.06 0.38, 1.17 0.31 C1.29 0.25, 1.42 0.19, 1.55 0.14 C1.67 0.1, 1.81 0.06, 1.94 0.04 C2.08 0.01, 2.21 0, 2.35 0 C2.49 0, 2.62 0.01, 2.76 0.04 C2.89 0.06, 3.02 0.1, 3.15 0.14 C3.28 0.19, 3.41 0.25, 3.52 0.31 C3.64 0.38, 3.75 0.46, 3.86 0.55 C3.96 0.64, 4.06 0.73, 4.15 0.84 C4.24 0.94, 4.32 1.06, 4.38 1.17 C4.45 1.29, 4.51 1.42, 4.56 1.55 C4.6 1.67, 4.64 1.81, 4.66 1.94 C4.69 2.08, 4.69 2.28, 4.7 2.35 C4.7 2.42, 4.7 2.28, 4.7 2.35" stroke="#000000" stroke-width="1" fill="none"></path></g><g stroke-linecap="round"><g transform="translate(723.0283636175188 450.4494748098389) rotate(0 11.623458862304688 5.765568542480537)"><path d="M0 0 C1.17 1.24, 4.19 5.51, 7.02 7.44 C9.86 9.36, 14.35 11.08, 17 11.53 C19.66 11.98, 21.88 11.08, 22.92 10.14 C23.96 9.2, 24.07 7.29, 23.25 5.89 C22.42 4.49, 18.84 2.45, 17.96 1.76 M0 0 C1.17 1.24, 4.19 5.51, 7.02 7.44 C9.86 9.36, 14.35 11.08, 17 11.53 C19.66 11.98, 21.88 11.08, 22.92 10.14 C23.96 9.2, 24.07 7.29, 23.25 5.89 C22.42 4.49, 18.84 2.45, 17.96 1.76" stroke="#000000" stroke-width="2" fill="none"></path></g></g><mask></mask><g transform="translate(670.487645734531 489.83866574231456) rotate(0 51.84996032714844 12)"><text x="51.84996032714844" y="0" font-family="Virgil, Segoe UI Emoji" font-size="20px" fill="#000000" text-anchor="middle" style="white-space: pre;" direction="ltr" dominant-baseline="text-before-edge">S3 Bucket</text></g></svg>